<?xml version="1.0" encoding="UTF-8" standalone="no"?>
<!DOCTYPE svg PUBLIC "-//W3C//DTD SVG 1.1//EN"
 "http://www.w3.org/Graphics/SVG/1.1/DTD/svg11.dtd">
<!-- Generated by graphviz version 2.40.1 (20161225.0304)
 -->
<!-- Title: Graphical Class Hierarchy Pages: 1 -->
<svg width="1998pt" height="878pt"
 viewBox="0.00 0.00 1998.00 878.00" xmlns="http://www.w3.org/2000/svg" xmlns:xlink="http://www.w3.org/1999/xlink">
<g id="graph0" class="graph" transform="scale(1 1) rotate(0) translate(4 874)">
<title>Graphical Class Hierarchy</title>
<!-- Node0 -->
<g id="node1" class="node">
<title>Node0</title>
<g id="a_node1"><a xlink:href="d8/dfb/class_translator.html" target="_top" xlink:title="Abstract base class for all translatable text fragments.">
<polygon fill="#ffffff" stroke="#666666" points="60,-111 0,-111 0,-92 60,-92 60,-111"/>
<text text-anchor="middle" x="30" y="-99" font-family="Helvetica,sans-Serif" font-size="10.00" fill="#000000">Translator</text>
</a>
</g>
</g>
<!-- Node1 -->
<g id="node2" class="node">
<title>Node1</title>
<g id="a_node2"><a xlink:href="db/d6c/class_translator_adapter_base.html" target="_top" xlink:title="Base of the translator adapter tree.">
<polygon fill="#ffffff" stroke="#666666" points="212,-204 96,-204 96,-185 212,-185 212,-204"/>
<text text-anchor="middle" x="154" y="-192" font-family="Helvetica,sans-Serif" font-size="10.00" fill="#000000">TranslatorAdapterBase</text>
</a>
</g>
</g>
<!-- Node0&#45;&gt;Node1 -->
<g id="edge1" class="edge">
<title>Node0&#45;&gt;Node1</title>
<path fill="none" stroke="#63b8ff" d="M41.8453,-119.5205C53.7015,-136.2397 73.3949,-160.7052 96,-175.5 101.8515,-179.3297 108.5409,-182.4476 115.2473,-184.9662"/>
<polygon fill="#63b8ff" stroke="#63b8ff" points="44.6391,-117.4059 36.096,-111.1397 38.8668,-121.3658 44.6391,-117.4059"/>
</g>
<!-- Node49 -->
<g id="node50" class="node">
<title>Node49</title>
<g id="a_node50"><a xlink:href="d2/d4c/class_translator_brazilian.html" target="_top" xlink:title=" ">
<polygon fill="#ffffff" stroke="#666666" points="203,-167 105,-167 105,-148 203,-148 203,-167"/>
<text text-anchor="middle" x="154" y="-155" font-family="Helvetica,sans-Serif" font-size="10.00" fill="#000000">TranslatorBrazilian</text>
</a>
</g>
</g>
<!-- Node0&#45;&gt;Node49 -->
<g id="edge49" class="edge">
<title>Node0&#45;&gt;Node49</title>
<path fill="none" stroke="#63b8ff" d="M53.7687,-116.3065C66.0786,-123.5897 81.5274,-132.145 96,-138.5 103.9555,-141.9933 112.7653,-145.1981 121.0659,-147.9409"/>
<polygon fill="#63b8ff" stroke="#63b8ff" points="55.4066,-113.2072 45.0353,-111.0425 51.7931,-119.2024 55.4066,-113.2072"/>
</g>
<!-- Node50 -->
<g id="node51" class="node">
<title>Node50</title>
<g id="a_node51"><a xlink:href="dd/d8a/class_translator_czech.html" target="_top" xlink:title=" ">
<polygon fill="#ffffff" stroke="#666666" points="198.5,-130 109.5,-130 109.5,-111 198.5,-111 198.5,-130"/>
<text text-anchor="middle" x="154" y="-118" font-family="Helvetica,sans-Serif" font-size="10.00" fill="#000000">TranslatorCzech</text>
</a>
</g>
</g>
<!-- Node0&#45;&gt;Node50 -->
<g id="edge50" class="edge">
<title>Node0&#45;&gt;Node50</title>
<path fill="none" stroke="#63b8ff" d="M70.132,-107.6493C82.6168,-109.5623 96.4585,-111.6832 109.2386,-113.6414"/>
<polygon fill="#63b8ff" stroke="#63b8ff" points="70.4317,-104.1544 60.0169,-106.0994 69.3714,-111.0737 70.4317,-104.1544"/>
</g>
<!-- Node51 -->
<g id="node52" class="node">
<title>Node51</title>
<g id="a_node52"><a xlink:href="d9/d1b/class_translator_dutch.html" target="_top" xlink:title=" ">
<polygon fill="#ffffff" stroke="#666666" points="197,-93 111,-93 111,-74 197,-74 197,-93"/>
<text text-anchor="middle" x="154" y="-81" font-family="Helvetica,sans-Serif" font-size="10.00" fill="#000000">TranslatorDutch</text>
</a>
</g>
</g>
<!-- Node0&#45;&gt;Node51 -->
<g id="edge51" class="edge">
<title>Node0&#45;&gt;Node51</title>
<path fill="none" stroke="#63b8ff" d="M70.052,-95.686C83.0229,-93.8031 97.4654,-91.7066 110.6635,-89.7908"/>
<polygon fill="#63b8ff" stroke="#63b8ff" points="69.4104,-92.2424 60.0169,-97.1427 70.416,-99.1698 69.4104,-92.2424"/>
</g>
<!-- Node52 -->
<g id="node53" class="node">
<title>Node52</title>
<g id="a_node53"><a xlink:href="d6/d78/class_translator_english.html" target="_top" xlink:title=" ">
<polygon fill="#ffffff" stroke="#666666" points="200,-56 108,-56 108,-37 200,-37 200,-56"/>
<text text-anchor="middle" x="154" y="-44" font-family="Helvetica,sans-Serif" font-size="10.00" fill="#000000">TranslatorEnglish</text>
</a>
</g>
</g>
<!-- Node0&#45;&gt;Node52 -->
<g id="edge52" class="edge">
<title>Node0&#45;&gt;Node52</title>
<path fill="none" stroke="#63b8ff" d="M53.7272,-86.5979C66.0264,-79.2901 81.4781,-70.7416 96,-64.5 103.2648,-61.3775 111.2511,-58.5397 118.9125,-56.0877"/>
<polygon fill="#63b8ff" stroke="#63b8ff" points="51.7413,-83.7088 45.0041,-91.8856 55.37,-89.6949 51.7413,-83.7088"/>
</g>
<!-- Node55 -->
<g id="node56" class="node">
<title>Node55</title>
<g id="a_node56"><a xlink:href="dc/df2/class_translator_portuguese.html" target="_top" xlink:title=" ">
<polygon fill="#ffffff" stroke="#666666" points="209,-19 99,-19 99,0 209,0 209,-19"/>
<text text-anchor="middle" x="154" y="-7" font-family="Helvetica,sans-Serif" font-size="10.00" fill="#000000">TranslatorPortuguese</text>
</a>
</g>
</g>
<!-- Node0&#45;&gt;Node55 -->
<g id="edge55" class="edge">
<title>Node0&#45;&gt;Node55</title>
<path fill="none" stroke="#63b8ff" d="M41.7936,-83.3998C53.6125,-66.6231 73.2798,-42.1175 96,-27.5 101.2313,-24.1343 107.1321,-21.3639 113.1158,-19.0932"/>
<polygon fill="#63b8ff" stroke="#63b8ff" points="38.8002,-81.5774 36.0654,-91.8132 44.5864,-85.5169 38.8002,-81.5774"/>
</g>
<!-- Node2 -->
<g id="node3" class="node">
<title>Node2</title>
<g id="a_node3"><a xlink:href="d0/d33/class_translator_adapter__1__9__4.html" target="_top" xlink:title=" ">
<polygon fill="#ffffff" stroke="#666666" points="373,-204 248,-204 248,-185 373,-185 373,-204"/>
<text text-anchor="middle" x="310.5" y="-192" font-family="Helvetica,sans-Serif" font-size="10.00" fill="#000000">TranslatorAdapter_1_9_4</text>
</a>
</g>
</g>
<!-- Node1&#45;&gt;Node2 -->
<g id="edge2" class="edge">
<title>Node1&#45;&gt;Node2</title>
<path fill="none" stroke="#63b8ff" d="M222.5047,-194.5C230.9767,-194.5 239.6034,-194.5 247.9794,-194.5"/>
<polygon fill="#63b8ff" stroke="#63b8ff" points="222.2749,-191.0001 212.2748,-194.5 222.2748,-198.0001 222.2749,-191.0001"/>
</g>
<!-- Node3 -->
<g id="node4" class="node">
<title>Node3</title>
<g id="a_node4"><a xlink:href="d3/d2e/class_translator_adapter__1__9__2.html" target="_top" xlink:title=" ">
<polygon fill="#ffffff" stroke="#666666" points="534,-297 409,-297 409,-278 534,-278 534,-297"/>
<text text-anchor="middle" x="471.5" y="-285" font-family="Helvetica,sans-Serif" font-size="10.00" fill="#000000">TranslatorAdapter_1_9_2</text>
</a>
</g>
</g>
<!-- Node2&#45;&gt;Node3 -->
<g id="edge3" class="edge">
<title>Node2&#45;&gt;Node3</title>
<path fill="none" stroke="#63b8ff" d="M328.083,-210.7536C346.8563,-227.3414 378.0982,-252.8139 409,-268.5 416.3823,-272.2473 424.6365,-275.4025 432.6651,-277.9985"/>
<polygon fill="#63b8ff" stroke="#63b8ff" points="330.3856,-208.1172 320.6093,-204.0336 325.7053,-213.3224 330.3856,-208.1172"/>
</g>
<!-- Node44 -->
<g id="node45" class="node">
<title>Node44</title>
<g id="a_node45"><a xlink:href="da/dbb/class_translator_bulgarian.html" target="_top" xlink:title=" ">
<polygon fill="#ffffff" stroke="#666666" points="522,-260 421,-260 421,-241 522,-241 522,-260"/>
<text text-anchor="middle" x="471.5" y="-248" font-family="Helvetica,sans-Serif" font-size="10.00" fill="#000000">TranslatorBulgarian</text>
</a>
</g>
</g>
<!-- Node2&#45;&gt;Node44 -->
<g id="edge44" class="edge">
<title>Node2&#45;&gt;Node44</title>
<path fill="none" stroke="#63b8ff" d="M344.0286,-207.7049C362.9904,-215.0187 387.199,-224.1002 409,-231.5 418.5579,-234.7442 429.0241,-238.0291 438.6119,-240.9343"/>
<polygon fill="#63b8ff" stroke="#63b8ff" points="345.2206,-204.4132 334.6316,-204.0596 342.6889,-210.9394 345.2206,-204.4132"/>
</g>
<!-- Node45 -->
<g id="node46" class="node">
<title>Node45</title>
<g id="a_node46"><a xlink:href="d6/db6/class_translator_chinese.html" target="_top" xlink:title=" ">
<polygon fill="#ffffff" stroke="#666666" points="519.5,-223 423.5,-223 423.5,-204 519.5,-204 519.5,-223"/>
<text text-anchor="middle" x="471.5" y="-211" font-family="Helvetica,sans-Serif" font-size="10.00" fill="#000000">TranslatorChinese</text>
</a>
</g>
</g>
<!-- Node2&#45;&gt;Node45 -->
<g id="edge45" class="edge">
<title>Node2&#45;&gt;Node45</title>
<path fill="none" stroke="#63b8ff" d="M383.4839,-203.113C397.0285,-204.7114 410.8593,-206.3436 423.4247,-207.8265"/>
<polygon fill="#63b8ff" stroke="#63b8ff" points="383.5491,-199.5965 373.2078,-201.9003 382.7287,-206.5483 383.5491,-199.5965"/>
</g>
<!-- Node46 -->
<g id="node47" class="node">
<title>Node46</title>
<g id="a_node47"><a xlink:href="df/d75/class_translator_greek.html" target="_top" xlink:title=" ">
<polygon fill="#ffffff" stroke="#666666" points="514.5,-186 428.5,-186 428.5,-167 514.5,-167 514.5,-186"/>
<text text-anchor="middle" x="471.5" y="-174" font-family="Helvetica,sans-Serif" font-size="10.00" fill="#000000">TranslatorGreek</text>
</a>
</g>
</g>
<!-- Node2&#45;&gt;Node46 -->
<g id="edge46" class="edge">
<title>Node2&#45;&gt;Node46</title>
<path fill="none" stroke="#63b8ff" d="M383.2099,-186.3709C398.5501,-184.6559 414.2711,-182.8983 428.1167,-181.3503"/>
<polygon fill="#63b8ff" stroke="#63b8ff" points="382.757,-182.8997 373.2078,-187.4892 383.5348,-189.8563 382.757,-182.8997"/>
</g>
<!-- Node47 -->
<g id="node48" class="node">
<title>Node47</title>
<g id="a_node48"><a xlink:href="d1/d8a/class_translator_hindi.html" target="_top" xlink:title=" ">
<polygon fill="#ffffff" stroke="#666666" points="513,-149 430,-149 430,-130 513,-130 513,-149"/>
<text text-anchor="middle" x="471.5" y="-137" font-family="Helvetica,sans-Serif" font-size="10.00" fill="#000000">TranslatorHindi</text>
</a>
</g>
</g>
<!-- Node2&#45;&gt;Node47 -->
<g id="edge47" class="edge">
<title>Node2&#45;&gt;Node47</title>
<path fill="none" stroke="#63b8ff" d="M343.6036,-181.3198C362.6085,-173.941 386.9975,-164.7882 409,-157.5 417.8967,-154.553 427.5944,-151.6248 436.6384,-149.0131"/>
<polygon fill="#63b8ff" stroke="#63b8ff" points="342.2362,-178.0963 334.1972,-184.9974 344.7852,-184.6158 342.2362,-178.0963"/>
</g>
<!-- Node48 -->
<g id="node49" class="node">
<title>Node48</title>
<g id="a_node49"><a xlink:href="d5/d5c/class_translator_swedish.html" target="_top" xlink:title=" ">
<polygon fill="#ffffff" stroke="#666666" points="520.5,-112 422.5,-112 422.5,-93 520.5,-93 520.5,-112"/>
<text text-anchor="middle" x="471.5" y="-100" font-family="Helvetica,sans-Serif" font-size="10.00" fill="#000000">TranslatorSwedish</text>
</a>
</g>
</g>
<!-- Node2&#45;&gt;Node48 -->
<g id="edge48" class="edge">
<title>Node2&#45;&gt;Node48</title>
<path fill="none" stroke="#63b8ff" d="M328.0367,-178.1544C346.7722,-161.4914 377.9837,-135.9583 409,-120.5 415.67,-117.1757 423.055,-114.3691 430.343,-112.0342"/>
<polygon fill="#63b8ff" stroke="#63b8ff" points="325.6424,-175.6007 320.5798,-184.9077 330.3414,-180.7892 325.6424,-175.6007"/>
</g>
<!-- Node4 -->
<g id="node5" class="node">
<title>Node4</title>
<g id="a_node5"><a xlink:href="de/dde/class_translator_adapter__1__8__19.html" target="_top" xlink:title=" ">
<polygon fill="#ffffff" stroke="#666666" points="701,-297 570,-297 570,-278 701,-278 701,-297"/>
<text text-anchor="middle" x="635.5" y="-285" font-family="Helvetica,sans-Serif" font-size="10.00" fill="#000000">TranslatorAdapter_1_8_19</text>
</a>
</g>
</g>
<!-- Node3&#45;&gt;Node4 -->
<g id="edge4" class="edge">
<title>Node3&#45;&gt;Node4</title>
<path fill="none" stroke="#63b8ff" d="M544.5745,-287.5C552.9557,-287.5 561.4628,-287.5 569.7399,-287.5"/>
<polygon fill="#63b8ff" stroke="#63b8ff" points="544.4377,-284.0001 534.4377,-287.5 544.4376,-291.0001 544.4377,-284.0001"/>
</g>
<!-- Node5 -->
<g id="node6" class="node">
<title>Node5</title>
<g id="a_node6"><a xlink:href="d4/d2e/class_translator_adapter__1__8__15.html" target="_top" xlink:title=" ">
<polygon fill="#ffffff" stroke="#666666" points="868,-334 737,-334 737,-315 868,-315 868,-334"/>
<text text-anchor="middle" x="802.5" y="-322" font-family="Helvetica,sans-Serif" font-size="10.00" fill="#000000">TranslatorAdapter_1_8_15</text>
</a>
</g>
</g>
<!-- Node4&#45;&gt;Node5 -->
<g id="edge5" class="edge">
<title>Node4&#45;&gt;Node5</title>
<path fill="none" stroke="#63b8ff" d="M688.3991,-299.2201C711.2687,-304.2871 737.6925,-310.1415 759.3492,-314.9396"/>
<polygon fill="#63b8ff" stroke="#63b8ff" points="689.027,-295.7745 678.5066,-297.0284 687.5128,-302.6087 689.027,-295.7745"/>
</g>
<!-- Node42 -->
<g id="node43" class="node">
<title>Node42</title>
<g id="a_node43"><a xlink:href="da/d1a/class_translator_french.html" target="_top" xlink:title=" ">
<polygon fill="#ffffff" stroke="#666666" points="847.5,-297 757.5,-297 757.5,-278 847.5,-278 847.5,-297"/>
<text text-anchor="middle" x="802.5" y="-285" font-family="Helvetica,sans-Serif" font-size="10.00" fill="#000000">TranslatorFrench</text>
</a>
</g>
</g>
<!-- Node4&#45;&gt;Node42 -->
<g id="edge42" class="edge">
<title>Node4&#45;&gt;Node42</title>
<path fill="none" stroke="#63b8ff" d="M711.2711,-287.5C726.982,-287.5 743.0609,-287.5 757.2575,-287.5"/>
<polygon fill="#63b8ff" stroke="#63b8ff" points="711.0235,-284.0001 701.0235,-287.5 711.0235,-291.0001 711.0235,-284.0001"/>
</g>
<!-- Node43 -->
<g id="node44" class="node">
<title>Node43</title>
<g id="a_node44"><a xlink:href="dc/d44/class_translator_spanish.html" target="_top" xlink:title=" ">
<polygon fill="#ffffff" stroke="#666666" points="850,-260 755,-260 755,-241 850,-241 850,-260"/>
<text text-anchor="middle" x="802.5" y="-248" font-family="Helvetica,sans-Serif" font-size="10.00" fill="#000000">TranslatorSpanish</text>
</a>
</g>
</g>
<!-- Node4&#45;&gt;Node43 -->
<g id="edge43" class="edge">
<title>Node4&#45;&gt;Node43</title>
<path fill="none" stroke="#63b8ff" d="M688.3991,-275.7799C711.2687,-270.7129 737.6925,-264.8585 759.3492,-260.0604"/>
<polygon fill="#63b8ff" stroke="#63b8ff" points="687.5128,-272.3913 678.5066,-277.9716 689.027,-279.2255 687.5128,-272.3913"/>
</g>
<!-- Node6 -->
<g id="node7" class="node">
<title>Node6</title>
<g id="a_node7"><a xlink:href="de/d2f/class_translator_adapter__1__8__4.html" target="_top" xlink:title=" ">
<polygon fill="#ffffff" stroke="#666666" points="1035.5,-501 910.5,-501 910.5,-482 1035.5,-482 1035.5,-501"/>
<text text-anchor="middle" x="973" y="-489" font-family="Helvetica,sans-Serif" font-size="10.00" fill="#000000">TranslatorAdapter_1_8_4</text>
</a>
</g>
</g>
<!-- Node5&#45;&gt;Node6 -->
<g id="edge6" class="edge">
<title>Node5&#45;&gt;Node6</title>
<path fill="none" stroke="#63b8ff" d="M810.3337,-343.6537C824.3078,-375.3865 856.5854,-438.7089 904,-472.5 909.4639,-476.394 915.6929,-479.4906 922.121,-481.953"/>
<polygon fill="#63b8ff" stroke="#63b8ff" points="813.4414,-342.0185 806.3009,-334.1914 807.0019,-344.7631 813.4414,-342.0185"/>
</g>
<!-- Node33 -->
<g id="node34" class="node">
<title>Node33</title>
<g id="a_node34"><a xlink:href="dd/df6/class_translator_chinesetraditional.html" target="_top" xlink:title=" ">
<polygon fill="#ffffff" stroke="#666666" points="1042,-464 904,-464 904,-445 1042,-445 1042,-464"/>
<text text-anchor="middle" x="973" y="-452" font-family="Helvetica,sans-Serif" font-size="10.00" fill="#000000">TranslatorChinesetraditional</text>
</a>
</g>
</g>
<!-- Node5&#45;&gt;Node33 -->
<g id="edge33" class="edge">
<title>Node5&#45;&gt;Node33</title>
<path fill="none" stroke="#63b8ff" d="M814.1723,-342.6487C831.0204,-367.3715 864.5052,-411.3187 904,-435.5 910.358,-439.3928 917.5259,-442.5045 924.7749,-444.9875"/>
<polygon fill="#63b8ff" stroke="#63b8ff" points="817.0034,-340.5852 808.5519,-334.196 811.1744,-344.4611 817.0034,-340.5852"/>
</g>
<!-- Node34 -->
<g id="node35" class="node">
<title>Node34</title>
<g id="a_node35"><a xlink:href="d6/d07/class_translator_german.html" target="_top" xlink:title=" ">
<polygon fill="#ffffff" stroke="#666666" points="1020.5,-427 925.5,-427 925.5,-408 1020.5,-408 1020.5,-427"/>
<text text-anchor="middle" x="973" y="-415" font-family="Helvetica,sans-Serif" font-size="10.00" fill="#000000">TranslatorGerman</text>
</a>
</g>
</g>
<!-- Node5&#45;&gt;Node34 -->
<g id="edge34" class="edge">
<title>Node5&#45;&gt;Node34</title>
<path fill="none" stroke="#63b8ff" d="M820.6253,-340.8904C839.976,-357.5899 872.174,-383.1524 904,-398.5 911.8342,-402.2779 920.543,-405.4104 929.0625,-407.9679"/>
<polygon fill="#63b8ff" stroke="#63b8ff" points="822.7438,-338.0926 812.9216,-334.1208 818.1231,-343.3509 822.7438,-338.0926"/>
</g>
<!-- Node35 -->
<g id="node36" class="node">
<title>Node35</title>
<g id="a_node36"><a xlink:href="db/d5f/class_translator_hungarian.html" target="_top" xlink:title=" ">
<polygon fill="#ffffff" stroke="#666666" points="1025,-390 921,-390 921,-371 1025,-371 1025,-390"/>
<text text-anchor="middle" x="973" y="-378" font-family="Helvetica,sans-Serif" font-size="10.00" fill="#000000">TranslatorHungarian</text>
</a>
</g>
</g>
<!-- Node5&#45;&gt;Node35 -->
<g id="edge35" class="edge">
<title>Node5&#45;&gt;Node35</title>
<path fill="none" stroke="#63b8ff" d="M836.3448,-337.6153C855.9677,-345.0235 881.2262,-354.2267 904,-361.5 914.4157,-364.8265 925.824,-368.1111 936.3116,-370.9896"/>
<polygon fill="#63b8ff" stroke="#63b8ff" points="837.5117,-334.3146 826.9207,-334.0322 835.024,-340.8577 837.5117,-334.3146"/>
</g>
<!-- Node36 -->
<g id="node37" class="node">
<title>Node36</title>
<g id="a_node37"><a xlink:href="d2/df8/class_translator_italian.html" target="_top" xlink:title=" ">
<polygon fill="#ffffff" stroke="#666666" points="1016,-353 930,-353 930,-334 1016,-334 1016,-353"/>
<text text-anchor="middle" x="973" y="-341" font-family="Helvetica,sans-Serif" font-size="10.00" fill="#000000">TranslatorItalian</text>
</a>
</g>
</g>
<!-- Node5&#45;&gt;Node36 -->
<g id="edge36" class="edge">
<title>Node5&#45;&gt;Node36</title>
<path fill="none" stroke="#63b8ff" d="M878.6723,-332.9884C896.2261,-334.9446 914.2992,-336.9586 929.8689,-338.6936"/>
<polygon fill="#63b8ff" stroke="#63b8ff" points="878.7459,-329.475 868.4198,-331.8459 877.9706,-336.432 878.7459,-329.475"/>
</g>
<!-- Node37 -->
<g id="node38" class="node">
<title>Node37</title>
<g id="a_node38"><a xlink:href="d1/d6a/class_translator_japanese.html" target="_top" xlink:title=" ">
<polygon fill="#ffffff" stroke="#666666" points="1024,-316 922,-316 922,-297 1024,-297 1024,-316"/>
<text text-anchor="middle" x="973" y="-304" font-family="Helvetica,sans-Serif" font-size="10.00" fill="#000000">TranslatorJapanese</text>
</a>
</g>
</g>
<!-- Node5&#45;&gt;Node37 -->
<g id="edge37" class="edge">
<title>Node5&#45;&gt;Node37</title>
<path fill="none" stroke="#63b8ff" d="M878.4844,-316.4782C893.1388,-314.9311 908.1628,-313.345 921.7965,-311.9056"/>
<polygon fill="#63b8ff" stroke="#63b8ff" points="877.997,-313.0101 868.4198,-317.5407 878.732,-319.9714 877.997,-313.0101"/>
</g>
<!-- Node38 -->
<g id="node39" class="node">
<title>Node38</title>
<g id="a_node39"><a xlink:href="db/dcc/class_translator_korean.html" target="_top" xlink:title=" ">
<polygon fill="#ffffff" stroke="#666666" points="1018.5,-279 927.5,-279 927.5,-260 1018.5,-260 1018.5,-279"/>
<text text-anchor="middle" x="973" y="-267" font-family="Helvetica,sans-Serif" font-size="10.00" fill="#000000">TranslatorKorean</text>
</a>
</g>
</g>
<!-- Node5&#45;&gt;Node38 -->
<g id="edge38" class="edge">
<title>Node5&#45;&gt;Node38</title>
<path fill="none" stroke="#63b8ff" d="M849.6613,-311.9371C855.8878,-309.9537 862.1389,-307.7935 868,-305.5 884.6586,-298.9814 887.2545,-293.7919 904,-287.5 912.46,-284.3213 921.7058,-281.4918 930.6014,-279.0708"/>
<polygon fill="#63b8ff" stroke="#63b8ff" points="848.4976,-308.6329 839.9567,-314.9021 850.543,-315.3274 848.4976,-308.6329"/>
</g>
<!-- Node39 -->
<g id="node40" class="node">
<title>Node39</title>
<g id="a_node40"><a xlink:href="da/d32/class_translator_romanian.html" target="_top" xlink:title=" ">
<polygon fill="#ffffff" stroke="#666666" points="1025,-242 921,-242 921,-223 1025,-223 1025,-242"/>
<text text-anchor="middle" x="973" y="-230" font-family="Helvetica,sans-Serif" font-size="10.00" fill="#000000">TranslatorRomanian</text>
</a>
</g>
</g>
<!-- Node5&#45;&gt;Node39 -->
<g id="edge39" class="edge">
<title>Node5&#45;&gt;Node39</title>
<path fill="none" stroke="#63b8ff" d="M859.6378,-310.7381C862.5707,-309.1755 865.3821,-307.4361 868,-305.5 891.4895,-288.1283 880.2769,-267.5513 904,-250.5 909.1269,-246.815 914.9495,-243.8838 920.9872,-241.5524"/>
<polygon fill="#63b8ff" stroke="#63b8ff" points="858.1713,-307.56 850.5458,-314.9154 861.0939,-313.9208 858.1713,-307.56"/>
</g>
<!-- Node40 -->
<g id="node41" class="node">
<title>Node40</title>
<g id="a_node41"><a xlink:href="d0/dab/class_translator_russian.html" target="_top" xlink:title=" ">
<polygon fill="#ffffff" stroke="#666666" points="1021,-205 925,-205 925,-186 1021,-186 1021,-205"/>
<text text-anchor="middle" x="973" y="-193" font-family="Helvetica,sans-Serif" font-size="10.00" fill="#000000">TranslatorRussian</text>
</a>
</g>
</g>
<!-- Node5&#45;&gt;Node40 -->
<g id="edge40" class="edge">
<title>Node5&#45;&gt;Node40</title>
<path fill="none" stroke="#63b8ff" d="M862.4326,-309.8822C864.3938,-308.5465 866.2596,-307.0894 868,-305.5 900.4226,-275.8912 871.1786,-242.666 904,-213.5 909.9227,-208.237 917.1965,-204.4804 924.7758,-201.8061"/>
<polygon fill="#63b8ff" stroke="#63b8ff" points="860.3257,-307.051 853.3164,-314.9957 863.7503,-313.1561 860.3257,-307.051"/>
</g>
<!-- Node41 -->
<g id="node42" class="node">
<title>Node41</title>
<g id="a_node42"><a xlink:href="d2/d53/class_translator_slovak.html" target="_top" xlink:title=" ">
<polygon fill="#ffffff" stroke="#666666" points="1018,-168 928,-168 928,-149 1018,-149 1018,-168"/>
<text text-anchor="middle" x="973" y="-156" font-family="Helvetica,sans-Serif" font-size="10.00" fill="#000000">TranslatorSlovak</text>
</a>
</g>
</g>
<!-- Node5&#45;&gt;Node41 -->
<g id="edge41" class="edge">
<title>Node5&#45;&gt;Node41</title>
<path fill="none" stroke="#63b8ff" d="M863.3987,-309.5348C865.0225,-308.2938 866.5631,-306.9516 868,-305.5 909.875,-263.1964 861.5547,-218.2313 904,-176.5 910.5327,-170.0772 919.0541,-165.8635 927.8687,-163.1186"/>
<polygon fill="#63b8ff" stroke="#63b8ff" points="861.3392,-306.6933 854.6805,-314.9341 865.0249,-312.6444 861.3392,-306.6933"/>
</g>
<!-- Node7 -->
<g id="node8" class="node">
<title>Node7</title>
<g id="a_node8"><a xlink:href="d2/d75/class_translator_adapter__1__8__2.html" target="_top" xlink:title=" ">
<polygon fill="#ffffff" stroke="#666666" points="1203,-556 1078,-556 1078,-537 1203,-537 1203,-556"/>
<text text-anchor="middle" x="1140.5" y="-544" font-family="Helvetica,sans-Serif" font-size="10.00" fill="#000000">TranslatorAdapter_1_8_2</text>
</a>
</g>
</g>
<!-- Node6&#45;&gt;Node7 -->
<g id="edge7" class="edge">
<title>Node6&#45;&gt;Node7</title>
<path fill="none" stroke="#63b8ff" d="M1009.8041,-504.4728C1029.8999,-511.4667 1055.2552,-520.1462 1078,-527.5 1087.8198,-530.6749 1098.5557,-533.9935 1108.3156,-536.9524"/>
<polygon fill="#63b8ff" stroke="#63b8ff" points="1010.7017,-501.079 1000.1068,-501.0868 1008.394,-507.6877 1010.7017,-501.079"/>
</g>
<!-- Node30 -->
<g id="node31" class="node">
<title>Node30</title>
<g id="a_node31"><a xlink:href="d2/d07/class_translator_esperanto.html" target="_top" xlink:title=" ">
<polygon fill="#ffffff" stroke="#666666" points="1192.5,-519 1088.5,-519 1088.5,-500 1192.5,-500 1192.5,-519"/>
<text text-anchor="middle" x="1140.5" y="-507" font-family="Helvetica,sans-Serif" font-size="10.00" fill="#000000">TranslatorEsperanto</text>
</a>
</g>
</g>
<!-- Node6&#45;&gt;Node30 -->
<g id="edge30" class="edge">
<title>Node6&#45;&gt;Node30</title>
<path fill="none" stroke="#63b8ff" d="M1046.0854,-499.354C1060.2793,-500.8793 1074.8885,-502.4492 1088.2465,-503.8847"/>
<polygon fill="#63b8ff" stroke="#63b8ff" points="1046.1641,-495.8423 1035.8474,-498.2537 1045.4161,-502.8023 1046.1641,-495.8423"/>
</g>
<!-- Node31 -->
<g id="node32" class="node">
<title>Node31</title>
<g id="a_node32"><a xlink:href="d8/d83/class_translator_latvian.html" target="_top" xlink:title=" ">
<polygon fill="#ffffff" stroke="#666666" points="1186.5,-482 1094.5,-482 1094.5,-463 1186.5,-463 1186.5,-482"/>
<text text-anchor="middle" x="1140.5" y="-470" font-family="Helvetica,sans-Serif" font-size="10.00" fill="#000000">TranslatorLatvian</text>
</a>
</g>
</g>
<!-- Node6&#45;&gt;Node31 -->
<g id="edge31" class="edge">
<title>Node6&#45;&gt;Node31</title>
<path fill="none" stroke="#63b8ff" d="M1045.9699,-483.2228C1062.3808,-481.3613 1079.3532,-479.4361 1094.3099,-477.7395"/>
<polygon fill="#63b8ff" stroke="#63b8ff" points="1045.3891,-479.7662 1035.8474,-484.371 1046.1782,-486.7216 1045.3891,-479.7662"/>
</g>
<!-- Node32 -->
<g id="node33" class="node">
<title>Node32</title>
<g id="a_node33"><a xlink:href="d1/d56/class_translator_ukrainian.html" target="_top" xlink:title=" ">
<polygon fill="#ffffff" stroke="#666666" points="1191,-445 1090,-445 1090,-426 1191,-426 1191,-445"/>
<text text-anchor="middle" x="1140.5" y="-433" font-family="Helvetica,sans-Serif" font-size="10.00" fill="#000000">TranslatorUkrainian</text>
</a>
</g>
</g>
<!-- Node6&#45;&gt;Node32 -->
<g id="edge32" class="edge">
<title>Node6&#45;&gt;Node32</title>
<path fill="none" stroke="#63b8ff" d="M1023.2302,-479.0484C1029.6181,-477.063 1036.0112,-474.8723 1042,-472.5 1058.8201,-465.8371 1061.2192,-460.2612 1078,-453.5 1085.8552,-450.335 1094.4721,-447.4796 1102.7303,-445.024"/>
<polygon fill="#63b8ff" stroke="#63b8ff" points="1021.8535,-475.8055 1013.2552,-481.9958 1023.8371,-482.5186 1021.8535,-475.8055"/>
</g>
<!-- Node8 -->
<g id="node9" class="node">
<title>Node8</title>
<g id="a_node9"><a xlink:href="de/d49/class_translator_adapter__1__8__0.html" target="_top" xlink:title="Adapter class for languages that only contain translations up to version 1.8.0.">
<polygon fill="#ffffff" stroke="#666666" points="1364,-593 1239,-593 1239,-574 1364,-574 1364,-593"/>
<text text-anchor="middle" x="1301.5" y="-581" font-family="Helvetica,sans-Serif" font-size="10.00" fill="#000000">TranslatorAdapter_1_8_0</text>
</a>
</g>
</g>
<!-- Node7&#45;&gt;Node8 -->
<g id="edge8" class="edge">
<title>Node7&#45;&gt;Node8</title>
<path fill="none" stroke="#63b8ff" d="M1191.7953,-558.2884C1213.7748,-563.3396 1239.1145,-569.163 1259.8995,-573.9396"/>
<polygon fill="#63b8ff" stroke="#63b8ff" points="1192.4914,-554.8572 1181.9615,-556.0284 1190.9235,-561.6793 1192.4914,-554.8572"/>
</g>
<!-- Node28 -->
<g id="node29" class="node">
<title>Node28</title>
<g id="a_node29"><a xlink:href="d9/d82/class_translator_croatian.html" target="_top" xlink:title=" ">
<polygon fill="#ffffff" stroke="#666666" points="1350,-556 1253,-556 1253,-537 1350,-537 1350,-556"/>
<text text-anchor="middle" x="1301.5" y="-544" font-family="Helvetica,sans-Serif" font-size="10.00" fill="#000000">TranslatorCroatian</text>
</a>
</g>
</g>
<!-- Node7&#45;&gt;Node28 -->
<g id="edge28" class="edge">
<title>Node7&#45;&gt;Node28</title>
<path fill="none" stroke="#63b8ff" d="M1213.3743,-546.5C1226.774,-546.5 1240.4581,-546.5 1252.9234,-546.5"/>
<polygon fill="#63b8ff" stroke="#63b8ff" points="1213.2078,-543.0001 1203.2078,-546.5 1213.2078,-550.0001 1213.2078,-543.0001"/>
</g>
<!-- Node29 -->
<g id="node30" class="node">
<title>Node29</title>
<g id="a_node30"><a xlink:href="de/d82/class_translator_polish.html" target="_top" xlink:title=" ">
<polygon fill="#ffffff" stroke="#666666" points="1345,-519 1258,-519 1258,-500 1345,-500 1345,-519"/>
<text text-anchor="middle" x="1301.5" y="-507" font-family="Helvetica,sans-Serif" font-size="10.00" fill="#000000">TranslatorPolish</text>
</a>
</g>
</g>
<!-- Node7&#45;&gt;Node29 -->
<g id="edge29" class="edge">
<title>Node7&#45;&gt;Node29</title>
<path fill="none" stroke="#63b8ff" d="M1191.7953,-534.7116C1213.7748,-529.6604 1239.1145,-523.837 1259.8995,-519.0604"/>
<polygon fill="#63b8ff" stroke="#63b8ff" points="1190.9235,-531.3207 1181.9615,-536.9716 1192.4914,-538.1428 1190.9235,-531.3207"/>
</g>
<!-- Node9 -->
<g id="node10" class="node">
<title>Node9</title>
<g id="a_node10"><a xlink:href="da/d24/class_translator_adapter__1__7__5.html" target="_top" xlink:title="Adapter class for languages that only contain translations up to version 1.7.5.">
<polygon fill="#ffffff" stroke="#666666" points="1525,-667 1400,-667 1400,-648 1525,-648 1525,-667"/>
<text text-anchor="middle" x="1462.5" y="-655" font-family="Helvetica,sans-Serif" font-size="10.00" fill="#000000">TranslatorAdapter_1_7_5</text>
</a>
</g>
</g>
<!-- Node8&#45;&gt;Node9 -->
<g id="edge9" class="edge">
<title>Node8&#45;&gt;Node9</title>
<path fill="none" stroke="#63b8ff" d="M1324.8673,-598.4312C1344.3839,-610.435 1373.2385,-627.1164 1400,-638.5 1408.3489,-642.0514 1417.5832,-645.2386 1426.3343,-647.9425"/>
<polygon fill="#63b8ff" stroke="#63b8ff" points="1326.681,-595.4375 1316.3428,-593.1196 1322.9791,-601.3786 1326.681,-595.4375"/>
</g>
<!-- Node24 -->
<g id="node25" class="node">
<title>Node24</title>
<g id="a_node25"><a xlink:href="da/db8/class_translator_armenian.html" target="_top" xlink:title=" ">
<polygon fill="#ffffff" stroke="#666666" points="1513,-630 1412,-630 1412,-611 1513,-611 1513,-630"/>
<text text-anchor="middle" x="1462.5" y="-618" font-family="Helvetica,sans-Serif" font-size="10.00" fill="#000000">TranslatorArmenian</text>
</a>
</g>
</g>
<!-- Node8&#45;&gt;Node24 -->
<g id="edge24" class="edge">
<title>Node8&#45;&gt;Node24</title>
<path fill="none" stroke="#63b8ff" d="M1352.7953,-595.2884C1374.7748,-600.3396 1400.1145,-606.163 1420.8995,-610.9396"/>
<polygon fill="#63b8ff" stroke="#63b8ff" points="1353.4914,-591.8572 1342.9615,-593.0284 1351.9235,-598.6793 1353.4914,-591.8572"/>
</g>
<!-- Node25 -->
<g id="node26" class="node">
<title>Node25</title>
<g id="a_node26"><a xlink:href="d9/dc1/class_translator_catalan.html" target="_top" xlink:title=" ">
<polygon fill="#ffffff" stroke="#666666" points="1509.5,-593 1415.5,-593 1415.5,-574 1509.5,-574 1509.5,-593"/>
<text text-anchor="middle" x="1462.5" y="-581" font-family="Helvetica,sans-Serif" font-size="10.00" fill="#000000">TranslatorCatalan</text>
</a>
</g>
</g>
<!-- Node8&#45;&gt;Node25 -->
<g id="edge25" class="edge">
<title>Node8&#45;&gt;Node25</title>
<path fill="none" stroke="#63b8ff" d="M1374.2437,-583.5C1388.1346,-583.5 1402.3364,-583.5 1415.174,-583.5"/>
<polygon fill="#63b8ff" stroke="#63b8ff" points="1374.2078,-580.0001 1364.2078,-583.5 1374.2078,-587.0001 1374.2078,-580.0001"/>
</g>
<!-- Node26 -->
<g id="node27" class="node">
<title>Node26</title>
<g id="a_node27"><a xlink:href="d7/d21/class_translator_danish.html" target="_top" xlink:title=" ">
<polygon fill="#ffffff" stroke="#666666" points="1508,-556 1417,-556 1417,-537 1508,-537 1508,-556"/>
<text text-anchor="middle" x="1462.5" y="-544" font-family="Helvetica,sans-Serif" font-size="10.00" fill="#000000">TranslatorDanish</text>
</a>
</g>
</g>
<!-- Node8&#45;&gt;Node26 -->
<g id="edge26" class="edge">
<title>Node8&#45;&gt;Node26</title>
<path fill="none" stroke="#63b8ff" d="M1352.7953,-571.7116C1374.7748,-566.6604 1400.1145,-560.837 1420.8995,-556.0604"/>
<polygon fill="#63b8ff" stroke="#63b8ff" points="1351.9235,-568.3207 1342.9615,-573.9716 1353.4914,-575.1428 1351.9235,-568.3207"/>
</g>
<!-- Node27 -->
<g id="node28" class="node">
<title>Node27</title>
<g id="a_node28"><a xlink:href="df/dc8/class_translator_indonesian.html" target="_top" xlink:title=" ">
<polygon fill="#ffffff" stroke="#666666" points="1516,-519 1409,-519 1409,-500 1516,-500 1516,-519"/>
<text text-anchor="middle" x="1462.5" y="-507" font-family="Helvetica,sans-Serif" font-size="10.00" fill="#000000">TranslatorIndonesian</text>
</a>
</g>
</g>
<!-- Node8&#45;&gt;Node27 -->
<g id="edge27" class="edge">
<title>Node8&#45;&gt;Node27</title>
<path fill="none" stroke="#63b8ff" d="M1353.06,-570.1629C1356.8652,-568.4783 1360.5571,-566.5972 1364,-564.5 1383.5948,-552.5641 1380.318,-539.2914 1400,-527.5 1405.6181,-524.1342 1411.8987,-521.3696 1418.2532,-519.1065"/>
<polygon fill="#63b8ff" stroke="#63b8ff" points="1351.4623,-567.0307 1343.4448,-573.9568 1354.0315,-573.5422 1351.4623,-567.0307"/>
</g>
<!-- Node10 -->
<g id="node11" class="node">
<title>Node10</title>
<g id="a_node11"><a xlink:href="d3/da1/class_translator_adapter__1__6__0.html" target="_top" xlink:title="Adapter class for languages that only contain translations up to version 1.6.0.">
<polygon fill="#ffffff" stroke="#666666" points="1686,-704 1561,-704 1561,-685 1686,-685 1686,-704"/>
<text text-anchor="middle" x="1623.5" y="-692" font-family="Helvetica,sans-Serif" font-size="10.00" fill="#000000">TranslatorAdapter_1_6_0</text>
</a>
</g>
</g>
<!-- Node9&#45;&gt;Node10 -->
<g id="edge10" class="edge">
<title>Node9&#45;&gt;Node10</title>
<path fill="none" stroke="#63b8ff" d="M1513.7953,-669.2884C1535.7748,-674.3396 1561.1145,-680.163 1581.8995,-684.9396"/>
<polygon fill="#63b8ff" stroke="#63b8ff" points="1514.4914,-665.8572 1503.9615,-667.0284 1512.9235,-672.6793 1514.4914,-665.8572"/>
</g>
<!-- Node22 -->
<g id="node23" class="node">
<title>Node22</title>
<g id="a_node23"><a xlink:href="d5/d43/class_translator_persian.html" target="_top" xlink:title=" ">
<polygon fill="#ffffff" stroke="#666666" points="1670,-667 1577,-667 1577,-648 1670,-648 1670,-667"/>
<text text-anchor="middle" x="1623.5" y="-655" font-family="Helvetica,sans-Serif" font-size="10.00" fill="#000000">TranslatorPersian</text>
</a>
</g>
</g>
<!-- Node9&#45;&gt;Node22 -->
<g id="edge22" class="edge">
<title>Node9&#45;&gt;Node22</title>
<path fill="none" stroke="#63b8ff" d="M1535.349,-657.5C1549.3862,-657.5 1563.7365,-657.5 1576.6719,-657.5"/>
<polygon fill="#63b8ff" stroke="#63b8ff" points="1535.2078,-654.0001 1525.2078,-657.5 1535.2078,-661.0001 1535.2078,-654.0001"/>
</g>
<!-- Node23 -->
<g id="node24" class="node">
<title>Node23</title>
<g id="a_node24"><a xlink:href="dd/d80/class_translator_turkish.html" target="_top" xlink:title=" ">
<polygon fill="#ffffff" stroke="#666666" points="1669.5,-630 1577.5,-630 1577.5,-611 1669.5,-611 1669.5,-630"/>
<text text-anchor="middle" x="1623.5" y="-618" font-family="Helvetica,sans-Serif" font-size="10.00" fill="#000000">TranslatorTurkish</text>
</a>
</g>
</g>
<!-- Node9&#45;&gt;Node23 -->
<g id="edge23" class="edge">
<title>Node9&#45;&gt;Node23</title>
<path fill="none" stroke="#63b8ff" d="M1513.7953,-645.7116C1535.7748,-640.6604 1561.1145,-634.837 1581.8995,-630.0604"/>
<polygon fill="#63b8ff" stroke="#63b8ff" points="1512.9235,-642.3207 1503.9615,-647.9716 1514.4914,-649.1428 1512.9235,-642.3207"/>
</g>
<!-- Node11 -->
<g id="node12" class="node">
<title>Node11</title>
<g id="a_node12"><a xlink:href="d4/d2b/class_translator_adapter__1__4__6.html" target="_top" xlink:title="Adapter class for languages that only contain translations up to version 1.4.6.">
<polygon fill="#ffffff" stroke="#666666" points="1847,-815 1722,-815 1722,-796 1847,-796 1847,-815"/>
<text text-anchor="middle" x="1784.5" y="-803" font-family="Helvetica,sans-Serif" font-size="10.00" fill="#000000">TranslatorAdapter_1_4_6</text>
</a>
</g>
</g>
<!-- Node10&#45;&gt;Node11 -->
<g id="edge11" class="edge">
<title>Node10&#45;&gt;Node11</title>
<path fill="none" stroke="#63b8ff" d="M1637.4656,-712.0385C1655.041,-732.969 1687.1707,-767.6252 1722,-787.5 1727.8844,-790.8578 1734.4437,-793.6305 1741.0383,-795.9077"/>
<polygon fill="#63b8ff" stroke="#63b8ff" points="1640.1135,-709.748 1631.0609,-704.2434 1634.705,-714.1918 1640.1135,-709.748"/>
</g>
<!-- Node16 -->
<g id="node17" class="node">
<title>Node16</title>
<g id="a_node17"><a xlink:href="d3/d65/class_translator_afrikaans.html" target="_top" xlink:title=" ">
<polygon fill="#ffffff" stroke="#666666" points="1835,-778 1734,-778 1734,-759 1835,-759 1835,-778"/>
<text text-anchor="middle" x="1784.5" y="-766" font-family="Helvetica,sans-Serif" font-size="10.00" fill="#000000">TranslatorAfrikaans</text>
</a>
</g>
</g>
<!-- Node10&#45;&gt;Node16 -->
<g id="edge16" class="edge">
<title>Node10&#45;&gt;Node16</title>
<path fill="none" stroke="#63b8ff" d="M1646.446,-709.6218C1665.9173,-721.938 1694.9256,-739.0951 1722,-750.5 1729.5965,-753.7 1737.9427,-756.5386 1745.9934,-758.9618"/>
<polygon fill="#63b8ff" stroke="#63b8ff" points="1648.2649,-706.6304 1637.9582,-704.1765 1644.4851,-712.5222 1648.2649,-706.6304"/>
</g>
<!-- Node17 -->
<g id="node18" class="node">
<title>Node17</title>
<g id="a_node18"><a xlink:href="de/df7/class_translator_finnish.html" target="_top" xlink:title=" ">
<polygon fill="#ffffff" stroke="#666666" points="1830.5,-741 1738.5,-741 1738.5,-722 1830.5,-722 1830.5,-741"/>
<text text-anchor="middle" x="1784.5" y="-729" font-family="Helvetica,sans-Serif" font-size="10.00" fill="#000000">TranslatorFinnish</text>
</a>
</g>
</g>
<!-- Node10&#45;&gt;Node17 -->
<g id="edge17" class="edge">
<title>Node10&#45;&gt;Node17</title>
<path fill="none" stroke="#63b8ff" d="M1674.7953,-706.2884C1696.7748,-711.3396 1722.1145,-717.163 1742.8995,-721.9396"/>
<polygon fill="#63b8ff" stroke="#63b8ff" points="1675.4914,-702.8572 1664.9615,-704.0284 1673.9235,-709.6793 1675.4914,-702.8572"/>
</g>
<!-- Node18 -->
<g id="node19" class="node">
<title>Node18</title>
<g id="a_node19"><a xlink:href="d9/ddf/class_translator_macedonian.html" target="_top" xlink:title=" ">
<polygon fill="#ffffff" stroke="#666666" points="1841,-704 1728,-704 1728,-685 1841,-685 1841,-704"/>
<text text-anchor="middle" x="1784.5" y="-692" font-family="Helvetica,sans-Serif" font-size="10.00" fill="#000000">TranslatorMacedonian</text>
</a>
</g>
</g>
<!-- Node10&#45;&gt;Node18 -->
<g id="edge18" class="edge">
<title>Node10&#45;&gt;Node18</title>
<path fill="none" stroke="#63b8ff" d="M1696.3195,-694.5C1706.9493,-694.5 1717.7593,-694.5 1727.9992,-694.5"/>
<polygon fill="#63b8ff" stroke="#63b8ff" points="1696.2078,-691.0001 1686.2078,-694.5 1696.2078,-698.0001 1696.2078,-691.0001"/>
</g>
<!-- Node19 -->
<g id="node20" class="node">
<title>Node19</title>
<g id="a_node20"><a xlink:href="d5/d0a/class_translator_serbian.html" target="_top" xlink:title=" ">
<polygon fill="#ffffff" stroke="#666666" points="1831,-667 1738,-667 1738,-648 1831,-648 1831,-667"/>
<text text-anchor="middle" x="1784.5" y="-655" font-family="Helvetica,sans-Serif" font-size="10.00" fill="#000000">TranslatorSerbian</text>
</a>
</g>
</g>
<!-- Node10&#45;&gt;Node19 -->
<g id="edge19" class="edge">
<title>Node10&#45;&gt;Node19</title>
<path fill="none" stroke="#63b8ff" d="M1674.7953,-682.7116C1696.7748,-677.6604 1722.1145,-671.837 1742.8995,-667.0604"/>
<polygon fill="#63b8ff" stroke="#63b8ff" points="1673.9235,-679.3207 1664.9615,-684.9716 1675.4914,-686.1428 1673.9235,-679.3207"/>
</g>
<!-- Node20 -->
<g id="node21" class="node">
<title>Node20</title>
<g id="a_node21"><a xlink:href="dc/d03/class_translator_serbian_cyrillic.html" target="_top" xlink:title=" ">
<polygon fill="#ffffff" stroke="#666666" points="1846,-630 1723,-630 1723,-611 1846,-611 1846,-630"/>
<text text-anchor="middle" x="1784.5" y="-618" font-family="Helvetica,sans-Serif" font-size="10.00" fill="#000000">TranslatorSerbianCyrillic</text>
</a>
</g>
</g>
<!-- Node10&#45;&gt;Node20 -->
<g id="edge20" class="edge">
<title>Node10&#45;&gt;Node20</title>
<path fill="none" stroke="#63b8ff" d="M1677.1761,-681.1543C1680.2362,-679.7486 1683.2022,-678.2016 1686,-676.5 1705.877,-664.4111 1702.123,-650.5889 1722,-638.5 1727.5956,-635.0969 1733.8638,-632.3118 1740.2127,-630.0395"/>
<polygon fill="#63b8ff" stroke="#63b8ff" points="1675.7397,-677.9599 1667.7873,-684.9605 1678.3697,-684.4471 1675.7397,-677.9599"/>
</g>
<!-- Node21 -->
<g id="node22" class="node">
<title>Node21</title>
<g id="a_node22"><a xlink:href="df/d20/class_translator_vietnamese.html" target="_top" xlink:title=" ">
<polygon fill="#ffffff" stroke="#666666" points="1840.5,-593 1728.5,-593 1728.5,-574 1840.5,-574 1840.5,-593"/>
<text text-anchor="middle" x="1784.5" y="-581" font-family="Helvetica,sans-Serif" font-size="10.00" fill="#000000">TranslatorVietnamese</text>
</a>
</g>
</g>
<!-- Node10&#45;&gt;Node21 -->
<g id="edge21" class="edge">
<title>Node10&#45;&gt;Node21</title>
<path fill="none" stroke="#63b8ff" d="M1681.1988,-680.0864C1682.8734,-678.9782 1684.4802,-677.7849 1686,-676.5 1714.2357,-652.6283 1693.7643,-625.3717 1722,-601.5 1726.0528,-598.0736 1730.7241,-595.2986 1735.6503,-593.0513"/>
<polygon fill="#63b8ff" stroke="#63b8ff" points="1679.4284,-677.0656 1672.3497,-684.9487 1682.7994,-683.2005 1679.4284,-677.0656"/>
</g>
<!-- Node12 -->
<g id="node13" class="node">
<title>Node12</title>
<g id="a_node13"><a xlink:href="d3/de9/class_translator_arabic.html" target="_top" xlink:title=" ">
<polygon fill="#ffffff" stroke="#666666" points="1980.5,-870 1892.5,-870 1892.5,-851 1980.5,-851 1980.5,-870"/>
<text text-anchor="middle" x="1936.5" y="-858" font-family="Helvetica,sans-Serif" font-size="10.00" fill="#000000">TranslatorArabic</text>
</a>
</g>
</g>
<!-- Node11&#45;&gt;Node12 -->
<g id="edge12" class="edge">
<title>Node11&#45;&gt;Node12</title>
<path fill="none" stroke="#63b8ff" d="M1818.5002,-818.6044C1837.4304,-825.8165 1861.4568,-834.8323 1883,-842.5 1890.9399,-845.326 1899.5829,-848.2846 1907.5605,-850.9679"/>
<polygon fill="#63b8ff" stroke="#63b8ff" points="1819.6963,-815.3146 1809.1057,-815.014 1817.1973,-821.8534 1819.6963,-815.3146"/>
</g>
<!-- Node13 -->
<g id="node14" class="node">
<title>Node13</title>
<g id="a_node14"><a xlink:href="dc/d53/class_translator_lithuanian.html" target="_top" xlink:title=" ">
<polygon fill="#ffffff" stroke="#666666" points="1988.5,-833 1884.5,-833 1884.5,-814 1988.5,-814 1988.5,-833"/>
<text text-anchor="middle" x="1936.5" y="-821" font-family="Helvetica,sans-Serif" font-size="10.00" fill="#000000">TranslatorLithuanian</text>
</a>
</g>
</g>
<!-- Node11&#45;&gt;Node13 -->
<g id="edge13" class="edge">
<title>Node11&#45;&gt;Node13</title>
<path fill="none" stroke="#63b8ff" d="M1857.344,-814.1263C1866.3737,-815.1956 1875.4628,-816.2719 1884.1005,-817.2948"/>
<polygon fill="#63b8ff" stroke="#63b8ff" points="1857.544,-810.6256 1847.2018,-812.9252 1856.7208,-817.577 1857.544,-810.6256"/>
</g>
<!-- Node14 -->
<g id="node15" class="node">
<title>Node14</title>
<g id="a_node15"><a xlink:href="dd/d38/class_translator_norwegian.html" target="_top" xlink:title=" ">
<polygon fill="#ffffff" stroke="#666666" points="1990,-796 1883,-796 1883,-777 1990,-777 1990,-796"/>
<text text-anchor="middle" x="1936.5" y="-784" font-family="Helvetica,sans-Serif" font-size="10.00" fill="#000000">TranslatorNorwegian</text>
</a>
</g>
</g>
<!-- Node11&#45;&gt;Node14 -->
<g id="edge14" class="edge">
<title>Node11&#45;&gt;Node14</title>
<path fill="none" stroke="#63b8ff" d="M1857.2159,-796.4105C1865.7906,-795.3387 1874.4211,-794.2599 1882.6698,-793.2288"/>
<polygon fill="#63b8ff" stroke="#63b8ff" points="1856.6904,-792.9489 1847.2018,-797.6623 1857.5587,-799.8948 1856.6904,-792.9489"/>
</g>
<!-- Node15 -->
<g id="node16" class="node">
<title>Node15</title>
<g id="a_node16"><a xlink:href="dd/d0b/class_translator_slovene.html" target="_top" xlink:title=" ">
<polygon fill="#ffffff" stroke="#666666" points="1984,-759 1889,-759 1889,-740 1984,-740 1984,-759"/>
<text text-anchor="middle" x="1936.5" y="-747" font-family="Helvetica,sans-Serif" font-size="10.00" fill="#000000">TranslatorSlovene</text>
</a>
</g>
</g>
<!-- Node11&#45;&gt;Node15 -->
<g id="edge15" class="edge">
<title>Node11&#45;&gt;Node15</title>
<path fill="none" stroke="#63b8ff" d="M1832.0447,-792.9207C1837.1436,-791.2424 1842.2133,-789.4286 1847,-787.5 1863.7808,-780.7388 1866.4326,-775.7685 1883,-768.5 1890.7624,-765.0945 1899.3472,-761.8328 1907.3257,-759.0027"/>
<polygon fill="#63b8ff" stroke="#63b8ff" points="1830.7702,-789.652 1822.2697,-795.976 1832.8585,-796.3333 1830.7702,-789.652"/>
</g>
<!-- Node53 -->
<g id="node54" class="node">
<title>Node53</title>
<g id="a_node54"><a xlink:href="d0/d16/class_translator_japanese_en.html" target="_top" xlink:title=" ">
<polygon fill="#ffffff" stroke="#666666" points="367.5,-75 253.5,-75 253.5,-56 367.5,-56 367.5,-75"/>
<text text-anchor="middle" x="310.5" y="-63" font-family="Helvetica,sans-Serif" font-size="10.00" fill="#000000">TranslatorJapaneseEn</text>
</a>
</g>
</g>
<!-- Node52&#45;&gt;Node53 -->
<g id="edge53" class="edge">
<title>Node52&#45;&gt;Node53</title>
<path fill="none" stroke="#63b8ff" d="M210.1232,-53.3137C224.1678,-55.0188 239.2484,-56.8497 253.3425,-58.5608"/>
<polygon fill="#63b8ff" stroke="#63b8ff" points="210.4577,-49.8287 200.1087,-52.0979 209.614,-56.7776 210.4577,-49.8287"/>
</g>
<!-- Node54 -->
<g id="node55" class="node">
<title>Node54</title>
<g id="a_node55"><a xlink:href="d0/d3a/class_translator_korean_en.html" target="_top" xlink:title=" ">
<polygon fill="#ffffff" stroke="#666666" points="362,-38 259,-38 259,-19 362,-19 362,-38"/>
<text text-anchor="middle" x="310.5" y="-26" font-family="Helvetica,sans-Serif" font-size="10.00" fill="#000000">TranslatorKoreanEn</text>
</a>
</g>
</g>
<!-- Node52&#45;&gt;Node54 -->
<g id="edge54" class="edge">
<title>Node52&#45;&gt;Node54</title>
<path fill="none" stroke="#63b8ff" d="M210.3223,-40.022C226.1984,-38.196 243.3844,-36.2194 258.9647,-34.4274"/>
<polygon fill="#63b8ff" stroke="#63b8ff" points="209.6433,-36.577 200.1087,-41.1968 210.4432,-43.5311 209.6433,-36.577"/>
</g>
</g>
</svg>
