<?xml version="1.0" encoding="UTF-8" standalone="no"?>
<!DOCTYPE svg PUBLIC "-//W3C//DTD SVG 1.1//EN"
 "http://www.w3.org/Graphics/SVG/1.1/DTD/svg11.dtd">
<!-- Generated by graphviz version 2.43.0 (0)
 -->
<!-- Title: Graphical Class Hierarchy Pages: 1 -->
<svg width="2321pt" height="840pt"
 viewBox="0.00 0.00 2321.00 840.00" xmlns="http://www.w3.org/2000/svg" xmlns:xlink="http://www.w3.org/1999/xlink">
<g id="graph0" class="graph" transform="scale(1 1) rotate(0) translate(4 836)">
<title>Graphical Class Hierarchy</title>
<!-- Node0 -->
<g id="node1" class="node">
<title>Node0</title>
<g id="a_node1"><a xlink:href="d8/dfb/class_translator.html" target="_top" xlink:title="Abstract base class for all translatable text fragments.">
<polygon fill="white" stroke="#666666" points="65,-74 0,-74 0,-55 65,-55 65,-74"/>
<text text-anchor="middle" x="32.5" y="-62" font-family="Helvetica,sans-Serif" font-size="10.00">Translator</text>
</a>
</g>
</g>
<!-- Node1 -->
<g id="node2" class="node">
<title>Node1</title>
<g id="a_node2"><a xlink:href="db/d6c/class_translator_adapter_base.html" target="_top" xlink:title="Base of the translator adapter tree.">
<polygon fill="white" stroke="#666666" points="228,-93 101,-93 101,-74 228,-74 228,-93"/>
<text text-anchor="middle" x="164.5" y="-81" font-family="Helvetica,sans-Serif" font-size="10.00">TranslatorAdapterBase</text>
</a>
</g>
</g>
<!-- Node0&#45;&gt;Node1 -->
<g id="edge1" class="edge">
<title>Node0&#45;&gt;Node1</title>
<path fill="none" stroke="#63b8ff" d="M75.27,-70.6C83.41,-71.79 92.11,-73.07 100.75,-74.33"/>
<polygon fill="#63b8ff" stroke="#63b8ff" points="75.7,-67.13 65.3,-69.15 74.69,-74.06 75.7,-67.13"/>
</g>
<!-- Node54 -->
<g id="node55" class="node">
<title>Node54</title>
<g id="a_node55"><a xlink:href="d6/d78/class_translator_english.html" target="_top" xlink:title=" ">
<polygon fill="white" stroke="#666666" points="214.5,-56 114.5,-56 114.5,-37 214.5,-37 214.5,-56"/>
<text text-anchor="middle" x="164.5" y="-44" font-family="Helvetica,sans-Serif" font-size="10.00">TranslatorEnglish</text>
</a>
</g>
</g>
<!-- Node0&#45;&gt;Node54 -->
<g id="edge54" class="edge">
<title>Node0&#45;&gt;Node54</title>
<path fill="none" stroke="#63b8ff" d="M75.37,-58.7C87.77,-56.99 101.47,-55.09 114.29,-53.31"/>
<polygon fill="#63b8ff" stroke="#63b8ff" points="74.73,-55.26 65.3,-60.1 75.69,-62.19 74.73,-55.26"/>
</g>
<!-- Node2 -->
<g id="node3" class="node">
<title>Node2</title>
<g id="a_node3"><a xlink:href="dd/dba/class_translator_adapter__1__9__5.html" target="_top" xlink:title=" ">
<polygon fill="white" stroke="#666666" points="401,-93 264,-93 264,-74 401,-74 401,-93"/>
<text text-anchor="middle" x="332.5" y="-81" font-family="Helvetica,sans-Serif" font-size="10.00">TranslatorAdapter_1_9_5</text>
</a>
</g>
</g>
<!-- Node1&#45;&gt;Node2 -->
<g id="edge2" class="edge">
<title>Node1&#45;&gt;Node2</title>
<path fill="none" stroke="#63b8ff" d="M238.49,-83.5C246.95,-83.5 255.56,-83.5 263.94,-83.5"/>
<polygon fill="#63b8ff" stroke="#63b8ff" points="238.26,-80 228.26,-83.5 238.26,-87 238.26,-80"/>
</g>
<!-- Node3 -->
<g id="node4" class="node">
<title>Node3</title>
<g id="a_node4"><a xlink:href="d0/d33/class_translator_adapter__1__9__4.html" target="_top" xlink:title=" ">
<polygon fill="white" stroke="#666666" points="574,-167 437,-167 437,-148 574,-148 574,-167"/>
<text text-anchor="middle" x="505.5" y="-155" font-family="Helvetica,sans-Serif" font-size="10.00">TranslatorAdapter_1_9_4</text>
</a>
</g>
</g>
<!-- Node2&#45;&gt;Node3 -->
<g id="edge3" class="edge">
<title>Node2&#45;&gt;Node3</title>
<path fill="none" stroke="#63b8ff" d="M357.82,-98.34C378.35,-110.4 408.83,-127.2 437,-138.5 445.93,-142.08 455.77,-145.26 465.12,-147.95"/>
<polygon fill="#63b8ff" stroke="#63b8ff" points="359.51,-95.27 349.13,-93.17 355.93,-101.29 359.51,-95.27"/>
</g>
<!-- Node50 -->
<g id="node51" class="node">
<title>Node50</title>
<g id="a_node51"><a xlink:href="d2/d4c/class_translator_brazilian.html" target="_top" xlink:title=" ">
<polygon fill="white" stroke="#666666" points="559,-130 452,-130 452,-111 559,-111 559,-130"/>
<text text-anchor="middle" x="505.5" y="-118" font-family="Helvetica,sans-Serif" font-size="10.00">TranslatorBrazilian</text>
</a>
</g>
</g>
<!-- Node2&#45;&gt;Node50 -->
<g id="edge50" class="edge">
<title>Node2&#45;&gt;Node50</title>
<path fill="none" stroke="#63b8ff" d="M387.35,-95.15C410.84,-100.23 438.04,-106.12 460.32,-110.94"/>
<polygon fill="#63b8ff" stroke="#63b8ff" points="388.05,-91.72 377.54,-93.03 386.57,-98.56 388.05,-91.72"/>
</g>
<!-- Node51 -->
<g id="node52" class="node">
<title>Node51</title>
<g id="a_node52"><a xlink:href="dd/d8a/class_translator_czech.html" target="_top" xlink:title=" ">
<polygon fill="white" stroke="#666666" points="552.5,-93 458.5,-93 458.5,-74 552.5,-74 552.5,-93"/>
<text text-anchor="middle" x="505.5" y="-81" font-family="Helvetica,sans-Serif" font-size="10.00">TranslatorCzech</text>
</a>
</g>
</g>
<!-- Node2&#45;&gt;Node51 -->
<g id="edge51" class="edge">
<title>Node2&#45;&gt;Node51</title>
<path fill="none" stroke="#63b8ff" d="M411.09,-83.5C427.28,-83.5 443.84,-83.5 458.44,-83.5"/>
<polygon fill="#63b8ff" stroke="#63b8ff" points="411.08,-80 401.08,-83.5 411.08,-87 411.08,-80"/>
</g>
<!-- Node52 -->
<g id="node53" class="node">
<title>Node52</title>
<g id="a_node53"><a xlink:href="d9/d1b/class_translator_dutch.html" target="_top" xlink:title=" ">
<polygon fill="white" stroke="#666666" points="552,-56 459,-56 459,-37 552,-37 552,-56"/>
<text text-anchor="middle" x="505.5" y="-44" font-family="Helvetica,sans-Serif" font-size="10.00">TranslatorDutch</text>
</a>
</g>
</g>
<!-- Node2&#45;&gt;Node52 -->
<g id="edge52" class="edge">
<title>Node2&#45;&gt;Node52</title>
<path fill="none" stroke="#63b8ff" d="M387.35,-71.85C410.84,-66.77 438.04,-60.88 460.32,-56.06"/>
<polygon fill="#63b8ff" stroke="#63b8ff" points="386.57,-68.44 377.54,-73.97 388.05,-75.28 386.57,-68.44"/>
</g>
<!-- Node53 -->
<g id="node54" class="node">
<title>Node53</title>
<g id="a_node54"><a xlink:href="dc/df2/class_translator_portuguese.html" target="_top" xlink:title=" ">
<polygon fill="white" stroke="#666666" points="565,-19 446,-19 446,0 565,0 565,-19"/>
<text text-anchor="middle" x="505.5" y="-7" font-family="Helvetica,sans-Serif" font-size="10.00">TranslatorPortuguese</text>
</a>
</g>
</g>
<!-- Node2&#45;&gt;Node53 -->
<g id="edge53" class="edge">
<title>Node2&#45;&gt;Node53</title>
<path fill="none" stroke="#63b8ff" d="M389.42,-70.32C393.44,-68.6 397.35,-66.67 401,-64.5 420.72,-52.77 417.2,-39.1 437,-27.5 442.86,-24.07 449.39,-21.28 456.01,-19.01"/>
<polygon fill="#63b8ff" stroke="#63b8ff" points="387.97,-67.13 379.86,-73.95 390.46,-73.67 387.97,-67.13"/>
</g>
<!-- Node4 -->
<g id="node5" class="node">
<title>Node4</title>
<g id="a_node5"><a xlink:href="d3/d2e/class_translator_adapter__1__9__2.html" target="_top" xlink:title=" ">
<polygon fill="white" stroke="#666666" points="747,-259 610,-259 610,-240 747,-240 747,-259"/>
<text text-anchor="middle" x="678.5" y="-247" font-family="Helvetica,sans-Serif" font-size="10.00">TranslatorAdapter_1_9_2</text>
</a>
</g>
</g>
<!-- Node3&#45;&gt;Node4 -->
<g id="edge4" class="edge">
<title>Node3&#45;&gt;Node4</title>
<path fill="none" stroke="#63b8ff" d="M525.15,-173.64C544.98,-190.06 577.86,-215.2 610,-230.5 617.8,-234.22 626.47,-237.33 634.92,-239.89"/>
<polygon fill="#63b8ff" stroke="#63b8ff" points="527.4,-170.96 517.49,-167.2 522.89,-176.31 527.4,-170.96"/>
</g>
<!-- Node45 -->
<g id="node46" class="node">
<title>Node45</title>
<g id="a_node46"><a xlink:href="da/dbb/class_translator_bulgarian.html" target="_top" xlink:title=" ">
<polygon fill="white" stroke="#666666" points="734,-222 623,-222 623,-203 734,-203 734,-222"/>
<text text-anchor="middle" x="678.5" y="-210" font-family="Helvetica,sans-Serif" font-size="10.00">TranslatorBulgarian</text>
</a>
</g>
</g>
<!-- Node3&#45;&gt;Node45 -->
<g id="edge45" class="edge">
<title>Node3&#45;&gt;Node45</title>
<path fill="none" stroke="#63b8ff" d="M542.3,-170.55C562.15,-177.63 587.33,-186.37 610,-193.5 620.34,-196.75 631.64,-200.04 642,-202.94"/>
<polygon fill="#63b8ff" stroke="#63b8ff" points="543.32,-167.2 532.73,-167.11 540.96,-173.79 543.32,-167.2"/>
</g>
<!-- Node46 -->
<g id="node47" class="node">
<title>Node46</title>
<g id="a_node47"><a xlink:href="d6/db6/class_translator_chinese.html" target="_top" xlink:title=" ">
<polygon fill="white" stroke="#666666" points="730.5,-185 626.5,-185 626.5,-166 730.5,-166 730.5,-185"/>
<text text-anchor="middle" x="678.5" y="-173" font-family="Helvetica,sans-Serif" font-size="10.00">TranslatorChinese</text>
</a>
</g>
</g>
<!-- Node3&#45;&gt;Node46 -->
<g id="edge46" class="edge">
<title>Node3&#45;&gt;Node46</title>
<path fill="none" stroke="#63b8ff" d="M584.41,-165.7C598.69,-167.2 613.26,-168.74 626.49,-170.13"/>
<polygon fill="#63b8ff" stroke="#63b8ff" points="584.4,-162.18 574.08,-164.61 583.66,-169.14 584.4,-162.18"/>
</g>
<!-- Node47 -->
<g id="node48" class="node">
<title>Node47</title>
<g id="a_node48"><a xlink:href="df/d75/class_translator_greek.html" target="_top" xlink:title=" ">
<polygon fill="white" stroke="#666666" points="725.5,-148 631.5,-148 631.5,-129 725.5,-129 725.5,-148"/>
<text text-anchor="middle" x="678.5" y="-136" font-family="Helvetica,sans-Serif" font-size="10.00">TranslatorGreek</text>
</a>
</g>
</g>
<!-- Node3&#45;&gt;Node47 -->
<g id="edge47" class="edge">
<title>Node3&#45;&gt;Node47</title>
<path fill="none" stroke="#63b8ff" d="M584.09,-148.88C600.28,-147.08 616.84,-145.24 631.44,-143.62"/>
<polygon fill="#63b8ff" stroke="#63b8ff" points="583.64,-145.41 574.08,-149.99 584.41,-152.36 583.64,-145.41"/>
</g>
<!-- Node48 -->
<g id="node49" class="node">
<title>Node48</title>
<g id="a_node49"><a xlink:href="d1/d8a/class_translator_hindi.html" target="_top" xlink:title=" ">
<polygon fill="white" stroke="#666666" points="723.5,-111 633.5,-111 633.5,-92 723.5,-92 723.5,-111"/>
<text text-anchor="middle" x="678.5" y="-99" font-family="Helvetica,sans-Serif" font-size="10.00">TranslatorHindi</text>
</a>
</g>
</g>
<!-- Node3&#45;&gt;Node48 -->
<g id="edge48" class="edge">
<title>Node3&#45;&gt;Node48</title>
<path fill="none" stroke="#63b8ff" d="M555.63,-144.99C561.88,-143.01 568.14,-140.84 574,-138.5 590.8,-131.79 593.15,-126.09 610,-119.5 618.13,-116.32 627.03,-113.5 635.62,-111.1"/>
<polygon fill="#63b8ff" stroke="#63b8ff" points="554.44,-141.69 545.87,-147.93 556.46,-148.4 554.44,-141.69"/>
</g>
<!-- Node49 -->
<g id="node50" class="node">
<title>Node49</title>
<g id="a_node50"><a xlink:href="d5/d5c/class_translator_swedish.html" target="_top" xlink:title=" ">
<polygon fill="white" stroke="#666666" points="731,-74 626,-74 626,-55 731,-55 731,-74"/>
<text text-anchor="middle" x="678.5" y="-62" font-family="Helvetica,sans-Serif" font-size="10.00">TranslatorSwedish</text>
</a>
</g>
</g>
<!-- Node3&#45;&gt;Node49 -->
<g id="edge49" class="edge">
<title>Node3&#45;&gt;Node49</title>
<path fill="none" stroke="#63b8ff" d="M565.56,-143.78C568.52,-142.21 571.36,-140.45 574,-138.5 597.79,-120.9 586.09,-99.93 610,-82.5 614.8,-79 620.24,-76.18 625.89,-73.91"/>
<polygon fill="#63b8ff" stroke="#63b8ff" points="564.02,-140.64 556.39,-147.98 566.93,-147 564.02,-140.64"/>
</g>
<!-- Node5 -->
<g id="node6" class="node">
<title>Node5</title>
<g id="a_node6"><a xlink:href="de/dde/class_translator_adapter__1__8__19.html" target="_top" xlink:title=" ">
<polygon fill="white" stroke="#666666" points="926,-259 783,-259 783,-240 926,-240 926,-259"/>
<text text-anchor="middle" x="854.5" y="-247" font-family="Helvetica,sans-Serif" font-size="10.00">TranslatorAdapter_1_8_19</text>
</a>
</g>
</g>
<!-- Node4&#45;&gt;Node5 -->
<g id="edge5" class="edge">
<title>Node4&#45;&gt;Node5</title>
<path fill="none" stroke="#63b8ff" d="M757.47,-249.5C765.89,-249.5 774.42,-249.5 782.75,-249.5"/>
<polygon fill="#63b8ff" stroke="#63b8ff" points="757.27,-246 747.27,-249.5 757.27,-253 757.27,-246"/>
</g>
<!-- Node6 -->
<g id="node7" class="node">
<title>Node6</title>
<g id="a_node7"><a xlink:href="d4/d2e/class_translator_adapter__1__8__15.html" target="_top" xlink:title=" ">
<polygon fill="white" stroke="#666666" points="1105,-296 962,-296 962,-277 1105,-277 1105,-296"/>
<text text-anchor="middle" x="1033.5" y="-284" font-family="Helvetica,sans-Serif" font-size="10.00">TranslatorAdapter_1_8_15</text>
</a>
</g>
</g>
<!-- Node5&#45;&gt;Node6 -->
<g id="edge6" class="edge">
<title>Node5&#45;&gt;Node6</title>
<path fill="none" stroke="#63b8ff" d="M910.92,-261.08C935.3,-266.18 963.61,-272.1 986.77,-276.94"/>
<polygon fill="#63b8ff" stroke="#63b8ff" points="911.59,-257.65 901.08,-259.03 910.15,-264.5 911.59,-257.65"/>
</g>
<!-- Node43 -->
<g id="node44" class="node">
<title>Node43</title>
<g id="a_node44"><a xlink:href="da/d1a/class_translator_french.html" target="_top" xlink:title=" ">
<polygon fill="white" stroke="#666666" points="1082,-259 985,-259 985,-240 1082,-240 1082,-259"/>
<text text-anchor="middle" x="1033.5" y="-247" font-family="Helvetica,sans-Serif" font-size="10.00">TranslatorFrench</text>
</a>
</g>
</g>
<!-- Node5&#45;&gt;Node43 -->
<g id="edge43" class="edge">
<title>Node5&#45;&gt;Node43</title>
<path fill="none" stroke="#63b8ff" d="M936.48,-249.5C953.08,-249.5 970.03,-249.5 984.98,-249.5"/>
<polygon fill="#63b8ff" stroke="#63b8ff" points="936.22,-246 926.22,-249.5 936.22,-253 936.22,-246"/>
</g>
<!-- Node44 -->
<g id="node45" class="node">
<title>Node44</title>
<g id="a_node45"><a xlink:href="dc/d44/class_translator_spanish.html" target="_top" xlink:title=" ">
<polygon fill="white" stroke="#666666" points="1085,-222 982,-222 982,-203 1085,-203 1085,-222"/>
<text text-anchor="middle" x="1033.5" y="-210" font-family="Helvetica,sans-Serif" font-size="10.00">TranslatorSpanish</text>
</a>
</g>
</g>
<!-- Node5&#45;&gt;Node44 -->
<g id="edge44" class="edge">
<title>Node5&#45;&gt;Node44</title>
<path fill="none" stroke="#63b8ff" d="M910.92,-237.92C935.3,-232.82 963.61,-226.9 986.77,-222.06"/>
<polygon fill="#63b8ff" stroke="#63b8ff" points="910.15,-234.5 901.08,-239.97 911.59,-241.35 910.15,-234.5"/>
</g>
<!-- Node7 -->
<g id="node8" class="node">
<title>Node7</title>
<g id="a_node8"><a xlink:href="de/d2f/class_translator_adapter__1__8__4.html" target="_top" xlink:title=" ">
<polygon fill="white" stroke="#666666" points="1286.5,-463 1149.5,-463 1149.5,-444 1286.5,-444 1286.5,-463"/>
<text text-anchor="middle" x="1218" y="-451" font-family="Helvetica,sans-Serif" font-size="10.00">TranslatorAdapter_1_8_4</text>
</a>
</g>
</g>
<!-- Node6&#45;&gt;Node7 -->
<g id="edge7" class="edge">
<title>Node6&#45;&gt;Node7</title>
<path fill="none" stroke="#63b8ff" d="M1042.89,-305.78C1057.81,-337.7 1092.04,-401.29 1141,-434.5 1146.74,-438.39 1153.21,-441.49 1159.89,-443.95"/>
<polygon fill="#63b8ff" stroke="#63b8ff" points="1045.89,-303.93 1038.58,-296.26 1039.52,-306.81 1045.89,-303.93"/>
</g>
<!-- Node34 -->
<g id="node35" class="node">
<title>Node34</title>
<g id="a_node35"><a xlink:href="dd/df6/class_translator_chinesetraditional.html" target="_top" xlink:title=" ">
<polygon fill="white" stroke="#666666" points="1295,-426 1141,-426 1141,-407 1295,-407 1295,-426"/>
<text text-anchor="middle" x="1218" y="-414" font-family="Helvetica,sans-Serif" font-size="10.00">TranslatorChinesetraditional</text>
</a>
</g>
</g>
<!-- Node6&#45;&gt;Node34 -->
<g id="edge34" class="edge">
<title>Node6&#45;&gt;Node34</title>
<path fill="none" stroke="#63b8ff" d="M1046.88,-304.77C1064.71,-329.63 1100.03,-373.74 1141,-397.5 1147.71,-401.39 1155.19,-404.49 1162.78,-406.96"/>
<polygon fill="#63b8ff" stroke="#63b8ff" points="1049.53,-302.45 1040.93,-296.26 1043.79,-306.46 1049.53,-302.45"/>
</g>
<!-- Node35 -->
<g id="node36" class="node">
<title>Node35</title>
<g id="a_node36"><a xlink:href="d6/d07/class_translator_german.html" target="_top" xlink:title=" ">
<polygon fill="white" stroke="#666666" points="1270,-389 1166,-389 1166,-370 1270,-370 1270,-389"/>
<text text-anchor="middle" x="1218" y="-377" font-family="Helvetica,sans-Serif" font-size="10.00">TranslatorGerman</text>
</a>
</g>
</g>
<!-- Node6&#45;&gt;Node35 -->
<g id="edge35" class="edge">
<title>Node6&#45;&gt;Node35</title>
<path fill="none" stroke="#63b8ff" d="M1053.32,-302.77C1073.65,-319.56 1107.63,-345.35 1141,-360.5 1149.42,-364.32 1158.73,-367.46 1167.86,-369.99"/>
<polygon fill="#63b8ff" stroke="#63b8ff" points="1055.39,-299.94 1045.48,-296.19 1050.89,-305.3 1055.39,-299.94"/>
</g>
<!-- Node36 -->
<g id="node37" class="node">
<title>Node36</title>
<g id="a_node37"><a xlink:href="db/d5f/class_translator_hungarian.html" target="_top" xlink:title=" ">
<polygon fill="white" stroke="#666666" points="1275.5,-352 1160.5,-352 1160.5,-333 1275.5,-333 1275.5,-352"/>
<text text-anchor="middle" x="1218" y="-340" font-family="Helvetica,sans-Serif" font-size="10.00">TranslatorHungarian</text>
</a>
</g>
</g>
<!-- Node6&#45;&gt;Node36 -->
<g id="edge36" class="edge">
<title>Node6&#45;&gt;Node36</title>
<path fill="none" stroke="#63b8ff" d="M1069.72,-299.62C1090.35,-307.09 1116.98,-316.34 1141,-323.5 1152.21,-326.84 1164.46,-330.08 1175.8,-332.91"/>
<polygon fill="#63b8ff" stroke="#63b8ff" points="1070.71,-296.26 1060.11,-296.12 1068.31,-302.84 1070.71,-296.26"/>
</g>
<!-- Node37 -->
<g id="node38" class="node">
<title>Node37</title>
<g id="a_node38"><a xlink:href="d2/df8/class_translator_italian.html" target="_top" xlink:title=" ">
<polygon fill="white" stroke="#666666" points="1265.5,-315 1170.5,-315 1170.5,-296 1265.5,-296 1265.5,-315"/>
<text text-anchor="middle" x="1218" y="-303" font-family="Helvetica,sans-Serif" font-size="10.00">TranslatorItalian</text>
</a>
</g>
</g>
<!-- Node6&#45;&gt;Node37 -->
<g id="edge37" class="edge">
<title>Node6&#45;&gt;Node37</title>
<path fill="none" stroke="#63b8ff" d="M1115.15,-294.9C1134.01,-296.86 1153.48,-298.89 1170.29,-300.64"/>
<polygon fill="#63b8ff" stroke="#63b8ff" points="1115.37,-291.4 1105.06,-293.85 1114.64,-298.36 1115.37,-291.4"/>
</g>
<!-- Node38 -->
<g id="node39" class="node">
<title>Node38</title>
<g id="a_node39"><a xlink:href="d1/d6a/class_translator_japanese.html" target="_top" xlink:title=" ">
<polygon fill="white" stroke="#666666" points="1272.5,-278 1163.5,-278 1163.5,-259 1272.5,-259 1272.5,-278"/>
<text text-anchor="middle" x="1218" y="-266" font-family="Helvetica,sans-Serif" font-size="10.00">TranslatorJapanese</text>
</a>
</g>
</g>
<!-- Node6&#45;&gt;Node38 -->
<g id="edge38" class="edge">
<title>Node6&#45;&gt;Node38</title>
<path fill="none" stroke="#63b8ff" d="M1115.14,-278.55C1131.45,-276.94 1148.22,-275.28 1163.33,-273.79"/>
<polygon fill="#63b8ff" stroke="#63b8ff" points="1114.67,-275.08 1105.06,-279.54 1115.35,-282.04 1114.67,-275.08"/>
</g>
<!-- Node39 -->
<g id="node40" class="node">
<title>Node39</title>
<g id="a_node40"><a xlink:href="db/dcc/class_translator_korean.html" target="_top" xlink:title=" ">
<polygon fill="white" stroke="#666666" points="1267,-241 1169,-241 1169,-222 1267,-222 1267,-241"/>
<text text-anchor="middle" x="1218" y="-229" font-family="Helvetica,sans-Serif" font-size="10.00">TranslatorKorean</text>
</a>
</g>
</g>
<!-- Node6&#45;&gt;Node39 -->
<g id="edge39" class="edge">
<title>Node6&#45;&gt;Node39</title>
<path fill="none" stroke="#63b8ff" d="M1085.31,-274.12C1092,-272.11 1098.71,-269.89 1105,-267.5 1121.72,-261.14 1124.18,-255.6 1141,-249.5 1149.92,-246.26 1159.65,-243.45 1169.07,-241.07"/>
<polygon fill="#63b8ff" stroke="#63b8ff" points="1084.22,-270.79 1075.58,-276.92 1086.16,-277.52 1084.22,-270.79"/>
</g>
<!-- Node40 -->
<g id="node41" class="node">
<title>Node40</title>
<g id="a_node41"><a xlink:href="da/d32/class_translator_romanian.html" target="_top" xlink:title=" ">
<polygon fill="white" stroke="#666666" points="1275,-204 1161,-204 1161,-185 1275,-185 1275,-204"/>
<text text-anchor="middle" x="1218" y="-192" font-family="Helvetica,sans-Serif" font-size="10.00">TranslatorRomanian</text>
</a>
</g>
</g>
<!-- Node6&#45;&gt;Node40 -->
<g id="edge40" class="edge">
<title>Node6&#45;&gt;Node40</title>
<path fill="none" stroke="#63b8ff" d="M1096.5,-272.73C1099.48,-271.17 1102.33,-269.43 1105,-267.5 1128.65,-250.35 1117.09,-229.28 1141,-212.5 1146.99,-208.29 1153.84,-205.06 1160.91,-202.58"/>
<polygon fill="#63b8ff" stroke="#63b8ff" points="1094.96,-269.59 1087.29,-276.9 1097.84,-275.97 1094.96,-269.59"/>
</g>
<!-- Node41 -->
<g id="node42" class="node">
<title>Node41</title>
<g id="a_node42"><a xlink:href="d0/dab/class_translator_russian.html" target="_top" xlink:title=" ">
<polygon fill="white" stroke="#666666" points="1269.5,-167 1166.5,-167 1166.5,-148 1269.5,-148 1269.5,-167"/>
<text text-anchor="middle" x="1218" y="-155" font-family="Helvetica,sans-Serif" font-size="10.00">TranslatorRussian</text>
</a>
</g>
</g>
<!-- Node6&#45;&gt;Node41 -->
<g id="edge41" class="edge">
<title>Node6&#45;&gt;Node41</title>
<path fill="none" stroke="#63b8ff" d="M1099.38,-271.86C1101.35,-270.53 1103.24,-269.08 1105,-267.5 1137.7,-238.2 1107.85,-204.29 1141,-175.5 1148.17,-169.28 1157.1,-165.11 1166.29,-162.34"/>
<polygon fill="#63b8ff" stroke="#63b8ff" points="1097.25,-269.05 1090.22,-276.97 1100.66,-275.16 1097.25,-269.05"/>
</g>
<!-- Node42 -->
<g id="node43" class="node">
<title>Node42</title>
<g id="a_node43"><a xlink:href="d2/d53/class_translator_slovak.html" target="_top" xlink:title=" ">
<polygon fill="white" stroke="#666666" points="1267,-130 1169,-130 1169,-111 1267,-111 1267,-130"/>
<text text-anchor="middle" x="1218" y="-118" font-family="Helvetica,sans-Serif" font-size="10.00">TranslatorSlovak</text>
</a>
</g>
</g>
<!-- Node6&#45;&gt;Node42 -->
<g id="edge42" class="edge">
<title>Node6&#45;&gt;Node42</title>
<path fill="none" stroke="#63b8ff" d="M1100.37,-271.51C1102,-270.27 1103.55,-268.94 1105,-267.5 1147.28,-225.6 1098.09,-179.75 1141,-138.5 1148.63,-131.17 1158.66,-126.64 1168.93,-123.88"/>
<polygon fill="#63b8ff" stroke="#63b8ff" points="1098.32,-268.66 1091.66,-276.9 1102.01,-274.61 1098.32,-268.66"/>
</g>
<!-- Node8 -->
<g id="node9" class="node">
<title>Node8</title>
<g id="a_node9"><a xlink:href="d2/d75/class_translator_adapter__1__8__2.html" target="_top" xlink:title=" ">
<polygon fill="white" stroke="#666666" points="1468,-518 1331,-518 1331,-499 1468,-499 1468,-518"/>
<text text-anchor="middle" x="1399.5" y="-506" font-family="Helvetica,sans-Serif" font-size="10.00">TranslatorAdapter_1_8_2</text>
</a>
</g>
</g>
<!-- Node7&#45;&gt;Node8 -->
<g id="edge8" class="edge">
<title>Node7&#45;&gt;Node8</title>
<path fill="none" stroke="#63b8ff" d="M1257.67,-466.32C1279.2,-473.35 1306.52,-482.12 1331,-489.5 1341.61,-492.7 1353.2,-496.02 1363.74,-498.98"/>
<polygon fill="#63b8ff" stroke="#63b8ff" points="1258.51,-462.91 1247.92,-463.12 1256.33,-469.56 1258.51,-462.91"/>
</g>
<!-- Node31 -->
<g id="node32" class="node">
<title>Node31</title>
<g id="a_node32"><a xlink:href="d2/d07/class_translator_esperanto.html" target="_top" xlink:title=" ">
<polygon fill="white" stroke="#666666" points="1456,-481 1343,-481 1343,-462 1456,-462 1456,-481"/>
<text text-anchor="middle" x="1399.5" y="-469" font-family="Helvetica,sans-Serif" font-size="10.00">TranslatorEsperanto</text>
</a>
</g>
</g>
<!-- Node7&#45;&gt;Node31 -->
<g id="edge31" class="edge">
<title>Node7&#45;&gt;Node31</title>
<path fill="none" stroke="#63b8ff" d="M1296.73,-461.3C1312.29,-462.85 1328.33,-464.46 1342.95,-465.93"/>
<polygon fill="#63b8ff" stroke="#63b8ff" points="1296.9,-457.79 1286.61,-460.28 1296.21,-464.76 1296.9,-457.79"/>
</g>
<!-- Node32 -->
<g id="node33" class="node">
<title>Node32</title>
<g id="a_node33"><a xlink:href="d8/d83/class_translator_latvian.html" target="_top" xlink:title=" ">
<polygon fill="white" stroke="#666666" points="1450,-444 1349,-444 1349,-425 1450,-425 1450,-444"/>
<text text-anchor="middle" x="1399.5" y="-432" font-family="Helvetica,sans-Serif" font-size="10.00">TranslatorLatvian</text>
</a>
</g>
</g>
<!-- Node7&#45;&gt;Node32 -->
<g id="edge32" class="edge">
<title>Node7&#45;&gt;Node32</title>
<path fill="none" stroke="#63b8ff" d="M1296.89,-445.26C1314.52,-443.39 1332.78,-441.46 1348.86,-439.75"/>
<polygon fill="#63b8ff" stroke="#63b8ff" points="1296.18,-441.81 1286.61,-446.34 1296.92,-448.77 1296.18,-441.81"/>
</g>
<!-- Node33 -->
<g id="node34" class="node">
<title>Node33</title>
<g id="a_node34"><a xlink:href="d1/d56/class_translator_ukrainian.html" target="_top" xlink:title=" ">
<polygon fill="white" stroke="#666666" points="1455.5,-407 1343.5,-407 1343.5,-388 1455.5,-388 1455.5,-407"/>
<text text-anchor="middle" x="1399.5" y="-395" font-family="Helvetica,sans-Serif" font-size="10.00">TranslatorUkrainian</text>
</a>
</g>
</g>
<!-- Node7&#45;&gt;Node33 -->
<g id="edge33" class="edge">
<title>Node7&#45;&gt;Node33</title>
<path fill="none" stroke="#63b8ff" d="M1274.94,-441.16C1281.77,-439.17 1288.6,-436.95 1295,-434.5 1311.9,-428.04 1314.15,-422.09 1331,-415.5 1339.13,-412.32 1348.03,-409.5 1356.62,-407.1"/>
<polygon fill="#63b8ff" stroke="#63b8ff" points="1273.68,-437.87 1264.96,-443.9 1275.54,-444.62 1273.68,-437.87"/>
</g>
<!-- Node9 -->
<g id="node10" class="node">
<title>Node9</title>
<g id="a_node10"><a xlink:href="de/d49/class_translator_adapter__1__8__0.html" target="_top" xlink:title="Adapter class for languages that only contain translations up to version 1.8.0.">
<polygon fill="white" stroke="#666666" points="1641,-555 1504,-555 1504,-536 1641,-536 1641,-555"/>
<text text-anchor="middle" x="1572.5" y="-543" font-family="Helvetica,sans-Serif" font-size="10.00">TranslatorAdapter_1_8_0</text>
</a>
</g>
</g>
<!-- Node8&#45;&gt;Node9 -->
<g id="edge9" class="edge">
<title>Node8&#45;&gt;Node9</title>
<path fill="none" stroke="#63b8ff" d="M1454.35,-520.15C1477.84,-525.23 1505.04,-531.12 1527.32,-535.94"/>
<polygon fill="#63b8ff" stroke="#63b8ff" points="1455.05,-516.72 1444.54,-518.03 1453.57,-523.56 1455.05,-516.72"/>
</g>
<!-- Node29 -->
<g id="node30" class="node">
<title>Node29</title>
<g id="a_node30"><a xlink:href="d9/d82/class_translator_croatian.html" target="_top" xlink:title=" ">
<polygon fill="white" stroke="#666666" points="1625.5,-518 1519.5,-518 1519.5,-499 1625.5,-499 1625.5,-518"/>
<text text-anchor="middle" x="1572.5" y="-506" font-family="Helvetica,sans-Serif" font-size="10.00">TranslatorCroatian</text>
</a>
</g>
</g>
<!-- Node8&#45;&gt;Node29 -->
<g id="edge29" class="edge">
<title>Node8&#45;&gt;Node29</title>
<path fill="none" stroke="#63b8ff" d="M1478.19,-508.5C1492.16,-508.5 1506.41,-508.5 1519.44,-508.5"/>
<polygon fill="#63b8ff" stroke="#63b8ff" points="1478.08,-505 1468.08,-508.5 1478.08,-512 1478.08,-505"/>
</g>
<!-- Node30 -->
<g id="node31" class="node">
<title>Node30</title>
<g id="a_node31"><a xlink:href="de/d82/class_translator_polish.html" target="_top" xlink:title=" ">
<polygon fill="white" stroke="#666666" points="1619.5,-481 1525.5,-481 1525.5,-462 1619.5,-462 1619.5,-481"/>
<text text-anchor="middle" x="1572.5" y="-469" font-family="Helvetica,sans-Serif" font-size="10.00">TranslatorPolish</text>
</a>
</g>
</g>
<!-- Node8&#45;&gt;Node30 -->
<g id="edge30" class="edge">
<title>Node8&#45;&gt;Node30</title>
<path fill="none" stroke="#63b8ff" d="M1454.35,-496.85C1477.84,-491.77 1505.04,-485.88 1527.32,-481.06"/>
<polygon fill="#63b8ff" stroke="#63b8ff" points="1453.57,-493.44 1444.54,-498.97 1455.05,-500.28 1453.57,-493.44"/>
</g>
<!-- Node10 -->
<g id="node11" class="node">
<title>Node10</title>
<g id="a_node11"><a xlink:href="da/d24/class_translator_adapter__1__7__5.html" target="_top" xlink:title="Adapter class for languages that only contain translations up to version 1.7.5.">
<polygon fill="white" stroke="#666666" points="1814,-629 1677,-629 1677,-610 1814,-610 1814,-629"/>
<text text-anchor="middle" x="1745.5" y="-617" font-family="Helvetica,sans-Serif" font-size="10.00">TranslatorAdapter_1_7_5</text>
</a>
</g>
</g>
<!-- Node9&#45;&gt;Node10 -->
<g id="edge10" class="edge">
<title>Node9&#45;&gt;Node10</title>
<path fill="none" stroke="#63b8ff" d="M1597.82,-560.34C1618.35,-572.4 1648.83,-589.2 1677,-600.5 1685.93,-604.08 1695.77,-607.26 1705.12,-609.95"/>
<polygon fill="#63b8ff" stroke="#63b8ff" points="1599.51,-557.27 1589.13,-555.17 1595.93,-563.29 1599.51,-557.27"/>
</g>
<!-- Node25 -->
<g id="node26" class="node">
<title>Node25</title>
<g id="a_node26"><a xlink:href="da/db8/class_translator_armenian.html" target="_top" xlink:title=" ">
<polygon fill="white" stroke="#666666" points="1801.5,-592 1689.5,-592 1689.5,-573 1801.5,-573 1801.5,-592"/>
<text text-anchor="middle" x="1745.5" y="-580" font-family="Helvetica,sans-Serif" font-size="10.00">TranslatorArmenian</text>
</a>
</g>
</g>
<!-- Node9&#45;&gt;Node25 -->
<g id="edge25" class="edge">
<title>Node9&#45;&gt;Node25</title>
<path fill="none" stroke="#63b8ff" d="M1627.35,-557.15C1650.84,-562.23 1678.04,-568.12 1700.32,-572.94"/>
<polygon fill="#63b8ff" stroke="#63b8ff" points="1628.05,-553.72 1617.54,-555.03 1626.57,-560.56 1628.05,-553.72"/>
</g>
<!-- Node26 -->
<g id="node27" class="node">
<title>Node26</title>
<g id="a_node27"><a xlink:href="d9/dc1/class_translator_catalan.html" target="_top" xlink:title=" ">
<polygon fill="white" stroke="#666666" points="1796.5,-555 1694.5,-555 1694.5,-536 1796.5,-536 1796.5,-555"/>
<text text-anchor="middle" x="1745.5" y="-543" font-family="Helvetica,sans-Serif" font-size="10.00">TranslatorCatalan</text>
</a>
</g>
</g>
<!-- Node9&#45;&gt;Node26 -->
<g id="edge26" class="edge">
<title>Node9&#45;&gt;Node26</title>
<path fill="none" stroke="#63b8ff" d="M1651.15,-545.5C1665.8,-545.5 1680.76,-545.5 1694.28,-545.5"/>
<polygon fill="#63b8ff" stroke="#63b8ff" points="1651.08,-542 1641.08,-545.5 1651.08,-549 1651.08,-542"/>
</g>
<!-- Node27 -->
<g id="node28" class="node">
<title>Node27</title>
<g id="a_node28"><a xlink:href="d7/d21/class_translator_danish.html" target="_top" xlink:title=" ">
<polygon fill="white" stroke="#666666" points="1794.5,-518 1696.5,-518 1696.5,-499 1794.5,-499 1794.5,-518"/>
<text text-anchor="middle" x="1745.5" y="-506" font-family="Helvetica,sans-Serif" font-size="10.00">TranslatorDanish</text>
</a>
</g>
</g>
<!-- Node9&#45;&gt;Node27 -->
<g id="edge27" class="edge">
<title>Node9&#45;&gt;Node27</title>
<path fill="none" stroke="#63b8ff" d="M1627.35,-533.85C1650.84,-528.77 1678.04,-522.88 1700.32,-518.06"/>
<polygon fill="#63b8ff" stroke="#63b8ff" points="1626.57,-530.44 1617.54,-535.97 1628.05,-537.28 1626.57,-530.44"/>
</g>
<!-- Node28 -->
<g id="node29" class="node">
<title>Node28</title>
<g id="a_node29"><a xlink:href="df/dc8/class_translator_indonesian.html" target="_top" xlink:title=" ">
<polygon fill="white" stroke="#666666" points="1804.5,-481 1686.5,-481 1686.5,-462 1804.5,-462 1804.5,-481"/>
<text text-anchor="middle" x="1745.5" y="-469" font-family="Helvetica,sans-Serif" font-size="10.00">TranslatorIndonesian</text>
</a>
</g>
</g>
<!-- Node9&#45;&gt;Node28 -->
<g id="edge28" class="edge">
<title>Node9&#45;&gt;Node28</title>
<path fill="none" stroke="#63b8ff" d="M1629.42,-532.32C1633.44,-530.6 1637.35,-528.67 1641,-526.5 1660.72,-514.77 1657.2,-501.1 1677,-489.5 1682.86,-486.07 1689.39,-483.28 1696.01,-481.01"/>
<polygon fill="#63b8ff" stroke="#63b8ff" points="1627.97,-529.13 1619.86,-535.95 1630.46,-535.67 1627.97,-529.13"/>
</g>
<!-- Node11 -->
<g id="node12" class="node">
<title>Node11</title>
<g id="a_node12"><a xlink:href="d3/da1/class_translator_adapter__1__6__0.html" target="_top" xlink:title="Adapter class for languages that only contain translations up to version 1.6.0.">
<polygon fill="white" stroke="#666666" points="1987,-666 1850,-666 1850,-647 1987,-647 1987,-666"/>
<text text-anchor="middle" x="1918.5" y="-654" font-family="Helvetica,sans-Serif" font-size="10.00">TranslatorAdapter_1_6_0</text>
</a>
</g>
</g>
<!-- Node10&#45;&gt;Node11 -->
<g id="edge11" class="edge">
<title>Node10&#45;&gt;Node11</title>
<path fill="none" stroke="#63b8ff" d="M1800.35,-631.15C1823.84,-636.23 1851.04,-642.12 1873.32,-646.94"/>
<polygon fill="#63b8ff" stroke="#63b8ff" points="1801.05,-627.72 1790.54,-629.03 1799.57,-634.56 1801.05,-627.72"/>
</g>
<!-- Node23 -->
<g id="node24" class="node">
<title>Node23</title>
<g id="a_node24"><a xlink:href="d5/d43/class_translator_persian.html" target="_top" xlink:title=" ">
<polygon fill="white" stroke="#666666" points="1969,-629 1868,-629 1868,-610 1969,-610 1969,-629"/>
<text text-anchor="middle" x="1918.5" y="-617" font-family="Helvetica,sans-Serif" font-size="10.00">TranslatorPersian</text>
</a>
</g>
</g>
<!-- Node10&#45;&gt;Node23 -->
<g id="edge23" class="edge">
<title>Node10&#45;&gt;Node23</title>
<path fill="none" stroke="#63b8ff" d="M1824.26,-619.5C1839.06,-619.5 1854.18,-619.5 1867.81,-619.5"/>
<polygon fill="#63b8ff" stroke="#63b8ff" points="1824.08,-616 1814.08,-619.5 1824.08,-623 1824.08,-616"/>
</g>
<!-- Node24 -->
<g id="node25" class="node">
<title>Node24</title>
<g id="a_node25"><a xlink:href="dd/d80/class_translator_turkish.html" target="_top" xlink:title=" ">
<polygon fill="white" stroke="#666666" points="1968,-592 1869,-592 1869,-573 1968,-573 1968,-592"/>
<text text-anchor="middle" x="1918.5" y="-580" font-family="Helvetica,sans-Serif" font-size="10.00">TranslatorTurkish</text>
</a>
</g>
</g>
<!-- Node10&#45;&gt;Node24 -->
<g id="edge24" class="edge">
<title>Node10&#45;&gt;Node24</title>
<path fill="none" stroke="#63b8ff" d="M1800.35,-607.85C1823.84,-602.77 1851.04,-596.88 1873.32,-592.06"/>
<polygon fill="#63b8ff" stroke="#63b8ff" points="1799.57,-604.44 1790.54,-609.97 1801.05,-611.28 1799.57,-604.44"/>
</g>
<!-- Node12 -->
<g id="node13" class="node">
<title>Node12</title>
<g id="a_node13"><a xlink:href="d4/d2b/class_translator_adapter__1__4__6.html" target="_top" xlink:title="Adapter class for languages that only contain translations up to version 1.4.6.">
<polygon fill="white" stroke="#666666" points="2160,-777 2023,-777 2023,-758 2160,-758 2160,-777"/>
<text text-anchor="middle" x="2091.5" y="-765" font-family="Helvetica,sans-Serif" font-size="10.00">TranslatorAdapter_1_4_6</text>
</a>
</g>
</g>
<!-- Node11&#45;&gt;Node12 -->
<g id="edge12" class="edge">
<title>Node11&#45;&gt;Node12</title>
<path fill="none" stroke="#63b8ff" d="M1934.01,-673.8C1952.54,-694.78 1986.59,-729.79 2023,-749.5 2029.29,-752.91 2036.27,-755.7 2043.28,-757.98"/>
<polygon fill="#63b8ff" stroke="#63b8ff" points="1936.46,-671.28 1927.27,-666 1931.17,-675.86 1936.46,-671.28"/>
</g>
<!-- Node17 -->
<g id="node18" class="node">
<title>Node17</title>
<g id="a_node18"><a xlink:href="d3/d65/class_translator_afrikaans.html" target="_top" xlink:title=" ">
<polygon fill="white" stroke="#666666" points="2146.5,-740 2036.5,-740 2036.5,-721 2146.5,-721 2146.5,-740"/>
<text text-anchor="middle" x="2091.5" y="-728" font-family="Helvetica,sans-Serif" font-size="10.00">TranslatorAfrikaans</text>
</a>
</g>
</g>
<!-- Node11&#45;&gt;Node17 -->
<g id="edge17" class="edge">
<title>Node11&#45;&gt;Node17</title>
<path fill="none" stroke="#63b8ff" d="M1943.03,-671.31C1963.52,-683.7 1994.35,-701.11 2023,-712.5 2031.11,-715.73 2040,-718.56 2048.59,-720.97"/>
<polygon fill="#63b8ff" stroke="#63b8ff" points="1944.74,-668.26 1934.39,-666.01 1941.08,-674.22 1944.74,-668.26"/>
</g>
<!-- Node18 -->
<g id="node19" class="node">
<title>Node18</title>
<g id="a_node19"><a xlink:href="de/df7/class_translator_finnish.html" target="_top" xlink:title=" ">
<polygon fill="white" stroke="#666666" points="2141,-703 2042,-703 2042,-684 2141,-684 2141,-703"/>
<text text-anchor="middle" x="2091.5" y="-691" font-family="Helvetica,sans-Serif" font-size="10.00">TranslatorFinnish</text>
</a>
</g>
</g>
<!-- Node11&#45;&gt;Node18 -->
<g id="edge18" class="edge">
<title>Node11&#45;&gt;Node18</title>
<path fill="none" stroke="#63b8ff" d="M1973.35,-668.15C1996.84,-673.23 2024.04,-679.12 2046.32,-683.94"/>
<polygon fill="#63b8ff" stroke="#63b8ff" points="1974.05,-664.72 1963.54,-666.03 1972.57,-671.56 1974.05,-664.72"/>
</g>
<!-- Node19 -->
<g id="node20" class="node">
<title>Node19</title>
<g id="a_node20"><a xlink:href="d9/ddf/class_translator_macedonian.html" target="_top" xlink:title=" ">
<polygon fill="white" stroke="#666666" points="2153.5,-666 2029.5,-666 2029.5,-647 2153.5,-647 2153.5,-666"/>
<text text-anchor="middle" x="2091.5" y="-654" font-family="Helvetica,sans-Serif" font-size="10.00">TranslatorMacedonian</text>
</a>
</g>
</g>
<!-- Node11&#45;&gt;Node19 -->
<g id="edge19" class="edge">
<title>Node11&#45;&gt;Node19</title>
<path fill="none" stroke="#63b8ff" d="M1997.28,-656.5C2008,-656.5 2018.88,-656.5 2029.24,-656.5"/>
<polygon fill="#63b8ff" stroke="#63b8ff" points="1997.08,-653 1987.08,-656.5 1997.08,-660 1997.08,-653"/>
</g>
<!-- Node20 -->
<g id="node21" class="node">
<title>Node20</title>
<g id="a_node21"><a xlink:href="d5/d0a/class_translator_serbian.html" target="_top" xlink:title=" ">
<polygon fill="white" stroke="#666666" points="2142,-629 2041,-629 2041,-610 2142,-610 2142,-629"/>
<text text-anchor="middle" x="2091.5" y="-617" font-family="Helvetica,sans-Serif" font-size="10.00">TranslatorSerbian</text>
</a>
</g>
</g>
<!-- Node11&#45;&gt;Node20 -->
<g id="edge20" class="edge">
<title>Node11&#45;&gt;Node20</title>
<path fill="none" stroke="#63b8ff" d="M1973.35,-644.85C1996.84,-639.77 2024.04,-633.88 2046.32,-629.06"/>
<polygon fill="#63b8ff" stroke="#63b8ff" points="1972.57,-641.44 1963.54,-646.97 1974.05,-648.28 1972.57,-641.44"/>
</g>
<!-- Node21 -->
<g id="node22" class="node">
<title>Node21</title>
<g id="a_node22"><a xlink:href="dc/d03/class_translator_serbian_cyrillic.html" target="_top" xlink:title=" ">
<polygon fill="white" stroke="#666666" points="2159,-592 2024,-592 2024,-573 2159,-573 2159,-592"/>
<text text-anchor="middle" x="2091.5" y="-580" font-family="Helvetica,sans-Serif" font-size="10.00">TranslatorSerbianCyrillic</text>
</a>
</g>
</g>
<!-- Node11&#45;&gt;Node21 -->
<g id="edge21" class="edge">
<title>Node11&#45;&gt;Node21</title>
<path fill="none" stroke="#63b8ff" d="M1975.42,-643.32C1979.44,-641.6 1983.35,-639.67 1987,-637.5 2006.72,-625.77 2003.2,-612.1 2023,-600.5 2028.86,-597.07 2035.39,-594.28 2042.01,-592.01"/>
<polygon fill="#63b8ff" stroke="#63b8ff" points="1973.97,-640.13 1965.86,-646.95 1976.46,-646.67 1973.97,-640.13"/>
</g>
<!-- Node22 -->
<g id="node23" class="node">
<title>Node22</title>
<g id="a_node23"><a xlink:href="df/d20/class_translator_vietnamese.html" target="_top" xlink:title=" ">
<polygon fill="white" stroke="#666666" points="2153,-555 2030,-555 2030,-536 2153,-536 2153,-555"/>
<text text-anchor="middle" x="2091.5" y="-543" font-family="Helvetica,sans-Serif" font-size="10.00">TranslatorVietnamese</text>
</a>
</g>
</g>
<!-- Node11&#45;&gt;Node22 -->
<g id="edge22" class="edge">
<title>Node11&#45;&gt;Node22</title>
<path fill="none" stroke="#63b8ff" d="M1980.48,-642.18C1982.77,-640.76 1984.96,-639.21 1987,-637.5 2015.06,-614.04 1994.78,-586.76 2023,-563.5 2027.12,-560.11 2031.81,-557.35 2036.77,-555.1"/>
<polygon fill="#63b8ff" stroke="#63b8ff" points="1978.48,-639.27 1971.21,-646.97 1981.7,-645.49 1978.48,-639.27"/>
</g>
<!-- Node13 -->
<g id="node14" class="node">
<title>Node13</title>
<g id="a_node14"><a xlink:href="d3/de9/class_translator_arabic.html" target="_top" xlink:title=" ">
<polygon fill="white" stroke="#666666" points="2302,-832 2207,-832 2207,-813 2302,-813 2302,-832"/>
<text text-anchor="middle" x="2254.5" y="-820" font-family="Helvetica,sans-Serif" font-size="10.00">TranslatorArabic</text>
</a>
</g>
</g>
<!-- Node12&#45;&gt;Node13 -->
<g id="edge13" class="edge">
<title>Node12&#45;&gt;Node13</title>
<path fill="none" stroke="#63b8ff" d="M2127.94,-780.57C2147.87,-787.81 2173.25,-796.88 2196,-804.5 2204.43,-807.33 2213.6,-810.26 2222.09,-812.92"/>
<polygon fill="#63b8ff" stroke="#63b8ff" points="2128.94,-777.2 2118.35,-777.06 2126.54,-783.78 2128.94,-777.2"/>
</g>
<!-- Node14 -->
<g id="node15" class="node">
<title>Node14</title>
<g id="a_node15"><a xlink:href="dc/d53/class_translator_lithuanian.html" target="_top" xlink:title=" ">
<polygon fill="white" stroke="#666666" points="2312.5,-795 2196.5,-795 2196.5,-776 2312.5,-776 2312.5,-795"/>
<text text-anchor="middle" x="2254.5" y="-783" font-family="Helvetica,sans-Serif" font-size="10.00">TranslatorLithuanian</text>
</a>
</g>
</g>
<!-- Node12&#45;&gt;Node14 -->
<g id="edge14" class="edge">
<title>Node12&#45;&gt;Node14</title>
<path fill="none" stroke="#63b8ff" d="M2170.53,-776.22C2179.27,-777.2 2188.05,-778.18 2196.46,-779.12"/>
<polygon fill="#63b8ff" stroke="#63b8ff" points="2170.64,-772.71 2160.31,-775.08 2169.86,-779.67 2170.64,-772.71"/>
</g>
<!-- Node15 -->
<g id="node16" class="node">
<title>Node15</title>
<g id="a_node16"><a xlink:href="dd/d38/class_translator_norwegian.html" target="_top" xlink:title=" ">
<polygon fill="white" stroke="#666666" points="2313,-758 2196,-758 2196,-739 2313,-739 2313,-758"/>
<text text-anchor="middle" x="2254.5" y="-746" font-family="Helvetica,sans-Serif" font-size="10.00">TranslatorNorwegian</text>
</a>
</g>
</g>
<!-- Node12&#45;&gt;Node15 -->
<g id="edge15" class="edge">
<title>Node12&#45;&gt;Node15</title>
<path fill="none" stroke="#63b8ff" d="M2170.38,-758.31C2179,-757.29 2187.66,-756.27 2195.96,-755.29"/>
<polygon fill="#63b8ff" stroke="#63b8ff" points="2169.83,-754.85 2160.31,-759.5 2170.65,-761.8 2169.83,-754.85"/>
</g>
<!-- Node16 -->
<g id="node17" class="node">
<title>Node16</title>
<g id="a_node17"><a xlink:href="dd/d0b/class_translator_slovene.html" target="_top" xlink:title=" ">
<polygon fill="white" stroke="#666666" points="2306.5,-721 2202.5,-721 2202.5,-702 2306.5,-702 2306.5,-721"/>
<text text-anchor="middle" x="2254.5" y="-709" font-family="Helvetica,sans-Serif" font-size="10.00">TranslatorSlovene</text>
</a>
</g>
</g>
<!-- Node12&#45;&gt;Node16 -->
<g id="edge16" class="edge">
<title>Node12&#45;&gt;Node16</title>
<path fill="none" stroke="#63b8ff" d="M2144.12,-755.03C2149.54,-753.34 2154.92,-751.49 2160,-749.5 2176.85,-742.91 2179.35,-737.58 2196,-730.5 2204.13,-727.04 2213.11,-723.81 2221.51,-721.02"/>
<polygon fill="#63b8ff" stroke="#63b8ff" points="2142.98,-751.71 2134.38,-757.9 2144.96,-758.43 2142.98,-751.71"/>
</g>
<!-- Node55 -->
<g id="node56" class="node">
<title>Node55</title>
<g id="a_node56"><a xlink:href="d0/d16/class_translator_japanese_en.html" target="_top" xlink:title=" ">
<polygon fill="white" stroke="#666666" points="393,-56 272,-56 272,-37 393,-37 393,-56"/>
<text text-anchor="middle" x="332.5" y="-44" font-family="Helvetica,sans-Serif" font-size="10.00">TranslatorJapaneseEn</text>
</a>
</g>
</g>
<!-- Node54&#45;&gt;Node55 -->
<g id="edge55" class="edge">
<title>Node54&#45;&gt;Node55</title>
<path fill="none" stroke="#63b8ff" d="M225.15,-46.5C240.31,-46.5 256.6,-46.5 271.77,-46.5"/>
<polygon fill="#63b8ff" stroke="#63b8ff" points="224.86,-43 214.86,-46.5 224.86,-50 224.86,-43"/>
</g>
<!-- Node56 -->
<g id="node57" class="node">
<title>Node56</title>
<g id="a_node57"><a xlink:href="d0/d3a/class_translator_korean_en.html" target="_top" xlink:title=" ">
<polygon fill="white" stroke="#666666" points="387.5,-19 277.5,-19 277.5,0 387.5,0 387.5,-19"/>
<text text-anchor="middle" x="332.5" y="-7" font-family="Helvetica,sans-Serif" font-size="10.00">TranslatorKoreanEn</text>
</a>
</g>
</g>
<!-- Node54&#45;&gt;Node56 -->
<g id="edge56" class="edge">
<title>Node54&#45;&gt;Node56</title>
<path fill="none" stroke="#63b8ff" d="M218.08,-34.78C240.81,-29.71 267.08,-23.86 288.61,-19.06"/>
<polygon fill="#63b8ff" stroke="#63b8ff" points="217.25,-31.38 208.25,-36.97 218.77,-38.21 217.25,-31.38"/>
</g>
</g>
</svg>
