<?xml version="1.0" encoding="UTF-8" standalone="no"?>
<!DOCTYPE svg PUBLIC "-//W3C//DTD SVG 1.1//EN"
 "http://www.w3.org/Graphics/SVG/1.1/DTD/svg11.dtd">
<!-- Generated by graphviz version 2.40.1 (20161225.0304)
 -->
<!-- Title: TranslatorAdapter_1_9_4 Pages: 1 -->
<svg width="1998pt" height="785pt"
 viewBox="0.00 0.00 1998.00 785.00" xmlns="http://www.w3.org/2000/svg" xmlns:xlink="http://www.w3.org/1999/xlink">
<g id="graph0" class="graph" transform="scale(1 1) rotate(0) translate(4 781)">
<title>TranslatorAdapter_1_9_4</title>
<!-- Node1 -->
<g id="node1" class="node">
<title>Node1</title>
<g id="a_node1"><a xlink:title=" ">
<polygon fill="#999999" stroke="#666666" points="373,-111 248,-111 248,-92 373,-92 373,-111"/>
<text text-anchor="middle" x="310.5" y="-99" font-family="Helvetica,sans-Serif" font-size="10.00" fill="#000000">TranslatorAdapter_1_9_4</text>
</a>
</g>
</g>
<!-- Node4 -->
<g id="node4" class="node">
<title>Node4</title>
<g id="a_node4"><a xlink:href="../../d3/d2e/class_translator_adapter__1__9__2.html" target="_top" xlink:title=" ">
<polygon fill="#ffffff" stroke="#666666" points="534,-204 409,-204 409,-185 534,-185 534,-204"/>
<text text-anchor="middle" x="471.5" y="-192" font-family="Helvetica,sans-Serif" font-size="10.00" fill="#000000">TranslatorAdapter_1_9_2</text>
</a>
</g>
</g>
<!-- Node1&#45;&gt;Node4 -->
<g id="edge3" class="edge">
<title>Node1&#45;&gt;Node4</title>
<path fill="none" stroke="#63b8ff" d="M328.083,-117.7536C346.8563,-134.3414 378.0982,-159.8139 409,-175.5 416.3823,-179.2473 424.6365,-182.4025 432.6651,-184.9985"/>
<polygon fill="#63b8ff" stroke="#63b8ff" points="330.3856,-115.1172 320.6093,-111.0336 325.7053,-120.3224 330.3856,-115.1172"/>
</g>
<!-- Node45 -->
<g id="node45" class="node">
<title>Node45</title>
<g id="a_node45"><a xlink:href="../../da/dbb/class_translator_bulgarian.html" target="_top" xlink:title=" ">
<polygon fill="#ffffff" stroke="#666666" points="522,-167 421,-167 421,-148 522,-148 522,-167"/>
<text text-anchor="middle" x="471.5" y="-155" font-family="Helvetica,sans-Serif" font-size="10.00" fill="#000000">TranslatorBulgarian</text>
</a>
</g>
</g>
<!-- Node1&#45;&gt;Node45 -->
<g id="edge44" class="edge">
<title>Node1&#45;&gt;Node45</title>
<path fill="none" stroke="#63b8ff" d="M344.0286,-114.7049C362.9904,-122.0187 387.199,-131.1002 409,-138.5 418.5579,-141.7442 429.0241,-145.0291 438.6119,-147.9343"/>
<polygon fill="#63b8ff" stroke="#63b8ff" points="345.2206,-111.4132 334.6316,-111.0596 342.6889,-117.9394 345.2206,-111.4132"/>
</g>
<!-- Node46 -->
<g id="node46" class="node">
<title>Node46</title>
<g id="a_node46"><a xlink:href="../../d6/db6/class_translator_chinese.html" target="_top" xlink:title=" ">
<polygon fill="#ffffff" stroke="#666666" points="519.5,-130 423.5,-130 423.5,-111 519.5,-111 519.5,-130"/>
<text text-anchor="middle" x="471.5" y="-118" font-family="Helvetica,sans-Serif" font-size="10.00" fill="#000000">TranslatorChinese</text>
</a>
</g>
</g>
<!-- Node1&#45;&gt;Node46 -->
<g id="edge45" class="edge">
<title>Node1&#45;&gt;Node46</title>
<path fill="none" stroke="#63b8ff" d="M383.4839,-110.113C397.0285,-111.7114 410.8593,-113.3436 423.4247,-114.8265"/>
<polygon fill="#63b8ff" stroke="#63b8ff" points="383.5491,-106.5965 373.2078,-108.9003 382.7287,-113.5483 383.5491,-106.5965"/>
</g>
<!-- Node47 -->
<g id="node47" class="node">
<title>Node47</title>
<g id="a_node47"><a xlink:href="../../df/d75/class_translator_greek.html" target="_top" xlink:title=" ">
<polygon fill="#ffffff" stroke="#666666" points="514.5,-93 428.5,-93 428.5,-74 514.5,-74 514.5,-93"/>
<text text-anchor="middle" x="471.5" y="-81" font-family="Helvetica,sans-Serif" font-size="10.00" fill="#000000">TranslatorGreek</text>
</a>
</g>
</g>
<!-- Node1&#45;&gt;Node47 -->
<g id="edge46" class="edge">
<title>Node1&#45;&gt;Node47</title>
<path fill="none" stroke="#63b8ff" d="M383.2099,-93.3709C398.5501,-91.6559 414.2711,-89.8983 428.1167,-88.3503"/>
<polygon fill="#63b8ff" stroke="#63b8ff" points="382.757,-89.8997 373.2078,-94.4892 383.5348,-96.8563 382.757,-89.8997"/>
</g>
<!-- Node48 -->
<g id="node48" class="node">
<title>Node48</title>
<g id="a_node48"><a xlink:href="../../d1/d8a/class_translator_hindi.html" target="_top" xlink:title=" ">
<polygon fill="#ffffff" stroke="#666666" points="513,-56 430,-56 430,-37 513,-37 513,-56"/>
<text text-anchor="middle" x="471.5" y="-44" font-family="Helvetica,sans-Serif" font-size="10.00" fill="#000000">TranslatorHindi</text>
</a>
</g>
</g>
<!-- Node1&#45;&gt;Node48 -->
<g id="edge47" class="edge">
<title>Node1&#45;&gt;Node48</title>
<path fill="none" stroke="#63b8ff" d="M343.6036,-88.3198C362.6085,-80.941 386.9975,-71.7882 409,-64.5 417.8967,-61.553 427.5944,-58.6248 436.6384,-56.0131"/>
<polygon fill="#63b8ff" stroke="#63b8ff" points="342.2362,-85.0963 334.1972,-91.9974 344.7852,-91.6158 342.2362,-85.0963"/>
</g>
<!-- Node49 -->
<g id="node49" class="node">
<title>Node49</title>
<g id="a_node49"><a xlink:href="../../d5/d5c/class_translator_swedish.html" target="_top" xlink:title=" ">
<polygon fill="#ffffff" stroke="#666666" points="520.5,-19 422.5,-19 422.5,0 520.5,0 520.5,-19"/>
<text text-anchor="middle" x="471.5" y="-7" font-family="Helvetica,sans-Serif" font-size="10.00" fill="#000000">TranslatorSwedish</text>
</a>
</g>
</g>
<!-- Node1&#45;&gt;Node49 -->
<g id="edge48" class="edge">
<title>Node1&#45;&gt;Node49</title>
<path fill="none" stroke="#63b8ff" d="M328.0367,-85.1544C346.7722,-68.4914 377.9837,-42.9583 409,-27.5 415.67,-24.1757 423.055,-21.3691 430.343,-19.0342"/>
<polygon fill="#63b8ff" stroke="#63b8ff" points="325.6424,-82.6007 320.5798,-91.9077 330.3414,-87.7892 325.6424,-82.6007"/>
</g>
<!-- Node2 -->
<g id="node2" class="node">
<title>Node2</title>
<g id="a_node2"><a xlink:href="../../db/d6c/class_translator_adapter_base.html" target="_top" xlink:title="Base of the translator adapter tree.">
<polygon fill="#ffffff" stroke="#666666" points="212,-111 96,-111 96,-92 212,-92 212,-111"/>
<text text-anchor="middle" x="154" y="-99" font-family="Helvetica,sans-Serif" font-size="10.00" fill="#000000">TranslatorAdapterBase</text>
</a>
</g>
</g>
<!-- Node2&#45;&gt;Node1 -->
<g id="edge1" class="edge">
<title>Node2&#45;&gt;Node1</title>
<path fill="none" stroke="#63b8ff" d="M222.5047,-101.5C230.9767,-101.5 239.6034,-101.5 247.9794,-101.5"/>
<polygon fill="#63b8ff" stroke="#63b8ff" points="222.2749,-98.0001 212.2748,-101.5 222.2748,-105.0001 222.2749,-98.0001"/>
</g>
<!-- Node3 -->
<g id="node3" class="node">
<title>Node3</title>
<g id="a_node3"><a xlink:href="../../d8/dfb/class_translator.html" target="_top" xlink:title="Abstract base class for all translatable text fragments.">
<polygon fill="#ffffff" stroke="#666666" points="60,-111 0,-111 0,-92 60,-92 60,-111"/>
<text text-anchor="middle" x="30" y="-99" font-family="Helvetica,sans-Serif" font-size="10.00" fill="#000000">Translator</text>
</a>
</g>
</g>
<!-- Node3&#45;&gt;Node2 -->
<g id="edge2" class="edge">
<title>Node3&#45;&gt;Node2</title>
<path fill="none" stroke="#63b8ff" d="M70.2811,-101.5C78.379,-101.5 87.0427,-101.5 95.614,-101.5"/>
<polygon fill="#63b8ff" stroke="#63b8ff" points="70.017,-98.0001 60.0169,-101.5 70.0169,-105.0001 70.017,-98.0001"/>
</g>
<!-- Node5 -->
<g id="node5" class="node">
<title>Node5</title>
<g id="a_node5"><a xlink:href="../../de/dde/class_translator_adapter__1__8__19.html" target="_top" xlink:title=" ">
<polygon fill="#ffffff" stroke="#666666" points="701,-204 570,-204 570,-185 701,-185 701,-204"/>
<text text-anchor="middle" x="635.5" y="-192" font-family="Helvetica,sans-Serif" font-size="10.00" fill="#000000">TranslatorAdapter_1_8_19</text>
</a>
</g>
</g>
<!-- Node4&#45;&gt;Node5 -->
<g id="edge4" class="edge">
<title>Node4&#45;&gt;Node5</title>
<path fill="none" stroke="#63b8ff" d="M544.5745,-194.5C552.9557,-194.5 561.4628,-194.5 569.7399,-194.5"/>
<polygon fill="#63b8ff" stroke="#63b8ff" points="544.4377,-191.0001 534.4377,-194.5 544.4376,-198.0001 544.4377,-191.0001"/>
</g>
<!-- Node6 -->
<g id="node6" class="node">
<title>Node6</title>
<g id="a_node6"><a xlink:href="../../d4/d2e/class_translator_adapter__1__8__15.html" target="_top" xlink:title=" ">
<polygon fill="#ffffff" stroke="#666666" points="868,-241 737,-241 737,-222 868,-222 868,-241"/>
<text text-anchor="middle" x="802.5" y="-229" font-family="Helvetica,sans-Serif" font-size="10.00" fill="#000000">TranslatorAdapter_1_8_15</text>
</a>
</g>
</g>
<!-- Node5&#45;&gt;Node6 -->
<g id="edge5" class="edge">
<title>Node5&#45;&gt;Node6</title>
<path fill="none" stroke="#63b8ff" d="M688.3991,-206.2201C711.2687,-211.2871 737.6925,-217.1415 759.3492,-221.9396"/>
<polygon fill="#63b8ff" stroke="#63b8ff" points="689.027,-202.7745 678.5066,-204.0284 687.5128,-209.6087 689.027,-202.7745"/>
</g>
<!-- Node43 -->
<g id="node43" class="node">
<title>Node43</title>
<g id="a_node43"><a xlink:href="../../da/d1a/class_translator_french.html" target="_top" xlink:title=" ">
<polygon fill="#ffffff" stroke="#666666" points="847.5,-204 757.5,-204 757.5,-185 847.5,-185 847.5,-204"/>
<text text-anchor="middle" x="802.5" y="-192" font-family="Helvetica,sans-Serif" font-size="10.00" fill="#000000">TranslatorFrench</text>
</a>
</g>
</g>
<!-- Node5&#45;&gt;Node43 -->
<g id="edge42" class="edge">
<title>Node5&#45;&gt;Node43</title>
<path fill="none" stroke="#63b8ff" d="M711.2711,-194.5C726.982,-194.5 743.0609,-194.5 757.2575,-194.5"/>
<polygon fill="#63b8ff" stroke="#63b8ff" points="711.0235,-191.0001 701.0235,-194.5 711.0235,-198.0001 711.0235,-191.0001"/>
</g>
<!-- Node44 -->
<g id="node44" class="node">
<title>Node44</title>
<g id="a_node44"><a xlink:href="../../dc/d44/class_translator_spanish.html" target="_top" xlink:title=" ">
<polygon fill="#ffffff" stroke="#666666" points="850,-167 755,-167 755,-148 850,-148 850,-167"/>
<text text-anchor="middle" x="802.5" y="-155" font-family="Helvetica,sans-Serif" font-size="10.00" fill="#000000">TranslatorSpanish</text>
</a>
</g>
</g>
<!-- Node5&#45;&gt;Node44 -->
<g id="edge43" class="edge">
<title>Node5&#45;&gt;Node44</title>
<path fill="none" stroke="#63b8ff" d="M688.3991,-182.7799C711.2687,-177.7129 737.6925,-171.8585 759.3492,-167.0604"/>
<polygon fill="#63b8ff" stroke="#63b8ff" points="687.5128,-179.3913 678.5066,-184.9716 689.027,-186.2255 687.5128,-179.3913"/>
</g>
<!-- Node7 -->
<g id="node7" class="node">
<title>Node7</title>
<g id="a_node7"><a xlink:href="../../de/d2f/class_translator_adapter__1__8__4.html" target="_top" xlink:title=" ">
<polygon fill="#ffffff" stroke="#666666" points="1035.5,-408 910.5,-408 910.5,-389 1035.5,-389 1035.5,-408"/>
<text text-anchor="middle" x="973" y="-396" font-family="Helvetica,sans-Serif" font-size="10.00" fill="#000000">TranslatorAdapter_1_8_4</text>
</a>
</g>
</g>
<!-- Node6&#45;&gt;Node7 -->
<g id="edge6" class="edge">
<title>Node6&#45;&gt;Node7</title>
<path fill="none" stroke="#63b8ff" d="M810.3337,-250.6537C824.3078,-282.3865 856.5854,-345.7089 904,-379.5 909.4639,-383.394 915.6929,-386.4906 922.121,-388.953"/>
<polygon fill="#63b8ff" stroke="#63b8ff" points="813.4414,-249.0185 806.3009,-241.1914 807.0019,-251.7631 813.4414,-249.0185"/>
</g>
<!-- Node34 -->
<g id="node34" class="node">
<title>Node34</title>
<g id="a_node34"><a xlink:href="../../dd/df6/class_translator_chinesetraditional.html" target="_top" xlink:title=" ">
<polygon fill="#ffffff" stroke="#666666" points="1042,-371 904,-371 904,-352 1042,-352 1042,-371"/>
<text text-anchor="middle" x="973" y="-359" font-family="Helvetica,sans-Serif" font-size="10.00" fill="#000000">TranslatorChinesetraditional</text>
</a>
</g>
</g>
<!-- Node6&#45;&gt;Node34 -->
<g id="edge33" class="edge">
<title>Node6&#45;&gt;Node34</title>
<path fill="none" stroke="#63b8ff" d="M814.1723,-249.6487C831.0204,-274.3715 864.5052,-318.3187 904,-342.5 910.358,-346.3928 917.5259,-349.5045 924.7749,-351.9875"/>
<polygon fill="#63b8ff" stroke="#63b8ff" points="817.0034,-247.5852 808.5519,-241.196 811.1744,-251.4611 817.0034,-247.5852"/>
</g>
<!-- Node35 -->
<g id="node35" class="node">
<title>Node35</title>
<g id="a_node35"><a xlink:href="../../d6/d07/class_translator_german.html" target="_top" xlink:title=" ">
<polygon fill="#ffffff" stroke="#666666" points="1020.5,-334 925.5,-334 925.5,-315 1020.5,-315 1020.5,-334"/>
<text text-anchor="middle" x="973" y="-322" font-family="Helvetica,sans-Serif" font-size="10.00" fill="#000000">TranslatorGerman</text>
</a>
</g>
</g>
<!-- Node6&#45;&gt;Node35 -->
<g id="edge34" class="edge">
<title>Node6&#45;&gt;Node35</title>
<path fill="none" stroke="#63b8ff" d="M820.6253,-247.8904C839.976,-264.5899 872.174,-290.1524 904,-305.5 911.8342,-309.2779 920.543,-312.4104 929.0625,-314.9679"/>
<polygon fill="#63b8ff" stroke="#63b8ff" points="822.7438,-245.0926 812.9216,-241.1208 818.1231,-250.3509 822.7438,-245.0926"/>
</g>
<!-- Node36 -->
<g id="node36" class="node">
<title>Node36</title>
<g id="a_node36"><a xlink:href="../../db/d5f/class_translator_hungarian.html" target="_top" xlink:title=" ">
<polygon fill="#ffffff" stroke="#666666" points="1025,-297 921,-297 921,-278 1025,-278 1025,-297"/>
<text text-anchor="middle" x="973" y="-285" font-family="Helvetica,sans-Serif" font-size="10.00" fill="#000000">TranslatorHungarian</text>
</a>
</g>
</g>
<!-- Node6&#45;&gt;Node36 -->
<g id="edge35" class="edge">
<title>Node6&#45;&gt;Node36</title>
<path fill="none" stroke="#63b8ff" d="M836.3448,-244.6153C855.9677,-252.0235 881.2262,-261.2267 904,-268.5 914.4157,-271.8265 925.824,-275.1111 936.3116,-277.9896"/>
<polygon fill="#63b8ff" stroke="#63b8ff" points="837.5117,-241.3146 826.9207,-241.0322 835.024,-247.8577 837.5117,-241.3146"/>
</g>
<!-- Node37 -->
<g id="node37" class="node">
<title>Node37</title>
<g id="a_node37"><a xlink:href="../../d2/df8/class_translator_italian.html" target="_top" xlink:title=" ">
<polygon fill="#ffffff" stroke="#666666" points="1016,-260 930,-260 930,-241 1016,-241 1016,-260"/>
<text text-anchor="middle" x="973" y="-248" font-family="Helvetica,sans-Serif" font-size="10.00" fill="#000000">TranslatorItalian</text>
</a>
</g>
</g>
<!-- Node6&#45;&gt;Node37 -->
<g id="edge36" class="edge">
<title>Node6&#45;&gt;Node37</title>
<path fill="none" stroke="#63b8ff" d="M878.6723,-239.9884C896.2261,-241.9446 914.2992,-243.9586 929.8689,-245.6936"/>
<polygon fill="#63b8ff" stroke="#63b8ff" points="878.7459,-236.475 868.4198,-238.8459 877.9706,-243.432 878.7459,-236.475"/>
</g>
<!-- Node38 -->
<g id="node38" class="node">
<title>Node38</title>
<g id="a_node38"><a xlink:href="../../d1/d6a/class_translator_japanese.html" target="_top" xlink:title=" ">
<polygon fill="#ffffff" stroke="#666666" points="1024,-223 922,-223 922,-204 1024,-204 1024,-223"/>
<text text-anchor="middle" x="973" y="-211" font-family="Helvetica,sans-Serif" font-size="10.00" fill="#000000">TranslatorJapanese</text>
</a>
</g>
</g>
<!-- Node6&#45;&gt;Node38 -->
<g id="edge37" class="edge">
<title>Node6&#45;&gt;Node38</title>
<path fill="none" stroke="#63b8ff" d="M878.4844,-223.4782C893.1388,-221.9311 908.1628,-220.345 921.7965,-218.9056"/>
<polygon fill="#63b8ff" stroke="#63b8ff" points="877.997,-220.0101 868.4198,-224.5407 878.732,-226.9714 877.997,-220.0101"/>
</g>
<!-- Node39 -->
<g id="node39" class="node">
<title>Node39</title>
<g id="a_node39"><a xlink:href="../../db/dcc/class_translator_korean.html" target="_top" xlink:title=" ">
<polygon fill="#ffffff" stroke="#666666" points="1018.5,-186 927.5,-186 927.5,-167 1018.5,-167 1018.5,-186"/>
<text text-anchor="middle" x="973" y="-174" font-family="Helvetica,sans-Serif" font-size="10.00" fill="#000000">TranslatorKorean</text>
</a>
</g>
</g>
<!-- Node6&#45;&gt;Node39 -->
<g id="edge38" class="edge">
<title>Node6&#45;&gt;Node39</title>
<path fill="none" stroke="#63b8ff" d="M849.6613,-218.9371C855.8878,-216.9537 862.1389,-214.7935 868,-212.5 884.6586,-205.9814 887.2545,-200.7919 904,-194.5 912.46,-191.3213 921.7058,-188.4918 930.6014,-186.0708"/>
<polygon fill="#63b8ff" stroke="#63b8ff" points="848.4976,-215.6329 839.9567,-221.9021 850.543,-222.3274 848.4976,-215.6329"/>
</g>
<!-- Node40 -->
<g id="node40" class="node">
<title>Node40</title>
<g id="a_node40"><a xlink:href="../../da/d32/class_translator_romanian.html" target="_top" xlink:title=" ">
<polygon fill="#ffffff" stroke="#666666" points="1025,-149 921,-149 921,-130 1025,-130 1025,-149"/>
<text text-anchor="middle" x="973" y="-137" font-family="Helvetica,sans-Serif" font-size="10.00" fill="#000000">TranslatorRomanian</text>
</a>
</g>
</g>
<!-- Node6&#45;&gt;Node40 -->
<g id="edge39" class="edge">
<title>Node6&#45;&gt;Node40</title>
<path fill="none" stroke="#63b8ff" d="M859.6378,-217.7381C862.5707,-216.1755 865.3821,-214.4361 868,-212.5 891.4895,-195.1283 880.2769,-174.5513 904,-157.5 909.1269,-153.815 914.9495,-150.8838 920.9872,-148.5524"/>
<polygon fill="#63b8ff" stroke="#63b8ff" points="858.1713,-214.56 850.5458,-221.9154 861.0939,-220.9208 858.1713,-214.56"/>
</g>
<!-- Node41 -->
<g id="node41" class="node">
<title>Node41</title>
<g id="a_node41"><a xlink:href="../../d0/dab/class_translator_russian.html" target="_top" xlink:title=" ">
<polygon fill="#ffffff" stroke="#666666" points="1021,-112 925,-112 925,-93 1021,-93 1021,-112"/>
<text text-anchor="middle" x="973" y="-100" font-family="Helvetica,sans-Serif" font-size="10.00" fill="#000000">TranslatorRussian</text>
</a>
</g>
</g>
<!-- Node6&#45;&gt;Node41 -->
<g id="edge40" class="edge">
<title>Node6&#45;&gt;Node41</title>
<path fill="none" stroke="#63b8ff" d="M862.4326,-216.8822C864.3938,-215.5465 866.2596,-214.0894 868,-212.5 900.4226,-182.8912 871.1786,-149.666 904,-120.5 909.9227,-115.237 917.1965,-111.4804 924.7758,-108.8061"/>
<polygon fill="#63b8ff" stroke="#63b8ff" points="860.3257,-214.051 853.3164,-221.9957 863.7503,-220.1561 860.3257,-214.051"/>
</g>
<!-- Node42 -->
<g id="node42" class="node">
<title>Node42</title>
<g id="a_node42"><a xlink:href="../../d2/d53/class_translator_slovak.html" target="_top" xlink:title=" ">
<polygon fill="#ffffff" stroke="#666666" points="1018,-75 928,-75 928,-56 1018,-56 1018,-75"/>
<text text-anchor="middle" x="973" y="-63" font-family="Helvetica,sans-Serif" font-size="10.00" fill="#000000">TranslatorSlovak</text>
</a>
</g>
</g>
<!-- Node6&#45;&gt;Node42 -->
<g id="edge41" class="edge">
<title>Node6&#45;&gt;Node42</title>
<path fill="none" stroke="#63b8ff" d="M863.3987,-216.5348C865.0225,-215.2938 866.5631,-213.9516 868,-212.5 909.875,-170.1964 861.5547,-125.2313 904,-83.5 910.5327,-77.0772 919.0541,-72.8635 927.8687,-70.1186"/>
<polygon fill="#63b8ff" stroke="#63b8ff" points="861.3392,-213.6933 854.6805,-221.9341 865.0249,-219.6444 861.3392,-213.6933"/>
</g>
<!-- Node8 -->
<g id="node8" class="node">
<title>Node8</title>
<g id="a_node8"><a xlink:href="../../d2/d75/class_translator_adapter__1__8__2.html" target="_top" xlink:title=" ">
<polygon fill="#ffffff" stroke="#666666" points="1203,-463 1078,-463 1078,-444 1203,-444 1203,-463"/>
<text text-anchor="middle" x="1140.5" y="-451" font-family="Helvetica,sans-Serif" font-size="10.00" fill="#000000">TranslatorAdapter_1_8_2</text>
</a>
</g>
</g>
<!-- Node7&#45;&gt;Node8 -->
<g id="edge7" class="edge">
<title>Node7&#45;&gt;Node8</title>
<path fill="none" stroke="#63b8ff" d="M1009.8041,-411.4728C1029.8999,-418.4667 1055.2552,-427.1462 1078,-434.5 1087.8198,-437.6749 1098.5557,-440.9935 1108.3156,-443.9524"/>
<polygon fill="#63b8ff" stroke="#63b8ff" points="1010.7017,-408.079 1000.1068,-408.0868 1008.394,-414.6877 1010.7017,-408.079"/>
</g>
<!-- Node31 -->
<g id="node31" class="node">
<title>Node31</title>
<g id="a_node31"><a xlink:href="../../d2/d07/class_translator_esperanto.html" target="_top" xlink:title=" ">
<polygon fill="#ffffff" stroke="#666666" points="1192.5,-426 1088.5,-426 1088.5,-407 1192.5,-407 1192.5,-426"/>
<text text-anchor="middle" x="1140.5" y="-414" font-family="Helvetica,sans-Serif" font-size="10.00" fill="#000000">TranslatorEsperanto</text>
</a>
</g>
</g>
<!-- Node7&#45;&gt;Node31 -->
<g id="edge30" class="edge">
<title>Node7&#45;&gt;Node31</title>
<path fill="none" stroke="#63b8ff" d="M1046.0854,-406.354C1060.2793,-407.8793 1074.8885,-409.4492 1088.2465,-410.8847"/>
<polygon fill="#63b8ff" stroke="#63b8ff" points="1046.1641,-402.8423 1035.8474,-405.2537 1045.4161,-409.8023 1046.1641,-402.8423"/>
</g>
<!-- Node32 -->
<g id="node32" class="node">
<title>Node32</title>
<g id="a_node32"><a xlink:href="../../d8/d83/class_translator_latvian.html" target="_top" xlink:title=" ">
<polygon fill="#ffffff" stroke="#666666" points="1186.5,-389 1094.5,-389 1094.5,-370 1186.5,-370 1186.5,-389"/>
<text text-anchor="middle" x="1140.5" y="-377" font-family="Helvetica,sans-Serif" font-size="10.00" fill="#000000">TranslatorLatvian</text>
</a>
</g>
</g>
<!-- Node7&#45;&gt;Node32 -->
<g id="edge31" class="edge">
<title>Node7&#45;&gt;Node32</title>
<path fill="none" stroke="#63b8ff" d="M1045.9699,-390.2228C1062.3808,-388.3613 1079.3532,-386.4361 1094.3099,-384.7395"/>
<polygon fill="#63b8ff" stroke="#63b8ff" points="1045.3891,-386.7662 1035.8474,-391.371 1046.1782,-393.7216 1045.3891,-386.7662"/>
</g>
<!-- Node33 -->
<g id="node33" class="node">
<title>Node33</title>
<g id="a_node33"><a xlink:href="../../d1/d56/class_translator_ukrainian.html" target="_top" xlink:title=" ">
<polygon fill="#ffffff" stroke="#666666" points="1191,-352 1090,-352 1090,-333 1191,-333 1191,-352"/>
<text text-anchor="middle" x="1140.5" y="-340" font-family="Helvetica,sans-Serif" font-size="10.00" fill="#000000">TranslatorUkrainian</text>
</a>
</g>
</g>
<!-- Node7&#45;&gt;Node33 -->
<g id="edge32" class="edge">
<title>Node7&#45;&gt;Node33</title>
<path fill="none" stroke="#63b8ff" d="M1023.2302,-386.0484C1029.6181,-384.063 1036.0112,-381.8723 1042,-379.5 1058.8201,-372.8371 1061.2192,-367.2612 1078,-360.5 1085.8552,-357.335 1094.4721,-354.4796 1102.7303,-352.024"/>
<polygon fill="#63b8ff" stroke="#63b8ff" points="1021.8535,-382.8055 1013.2552,-388.9958 1023.8371,-389.5186 1021.8535,-382.8055"/>
</g>
<!-- Node9 -->
<g id="node9" class="node">
<title>Node9</title>
<g id="a_node9"><a xlink:href="../../de/d49/class_translator_adapter__1__8__0.html" target="_top" xlink:title="Adapter class for languages that only contain translations up to version 1.8.0.">
<polygon fill="#ffffff" stroke="#666666" points="1364,-500 1239,-500 1239,-481 1364,-481 1364,-500"/>
<text text-anchor="middle" x="1301.5" y="-488" font-family="Helvetica,sans-Serif" font-size="10.00" fill="#000000">TranslatorAdapter_1_8_0</text>
</a>
</g>
</g>
<!-- Node8&#45;&gt;Node9 -->
<g id="edge8" class="edge">
<title>Node8&#45;&gt;Node9</title>
<path fill="none" stroke="#63b8ff" d="M1191.7953,-465.2884C1213.7748,-470.3396 1239.1145,-476.163 1259.8995,-480.9396"/>
<polygon fill="#63b8ff" stroke="#63b8ff" points="1192.4914,-461.8572 1181.9615,-463.0284 1190.9235,-468.6793 1192.4914,-461.8572"/>
</g>
<!-- Node29 -->
<g id="node29" class="node">
<title>Node29</title>
<g id="a_node29"><a xlink:href="../../d9/d82/class_translator_croatian.html" target="_top" xlink:title=" ">
<polygon fill="#ffffff" stroke="#666666" points="1350,-463 1253,-463 1253,-444 1350,-444 1350,-463"/>
<text text-anchor="middle" x="1301.5" y="-451" font-family="Helvetica,sans-Serif" font-size="10.00" fill="#000000">TranslatorCroatian</text>
</a>
</g>
</g>
<!-- Node8&#45;&gt;Node29 -->
<g id="edge28" class="edge">
<title>Node8&#45;&gt;Node29</title>
<path fill="none" stroke="#63b8ff" d="M1213.3743,-453.5C1226.774,-453.5 1240.4581,-453.5 1252.9234,-453.5"/>
<polygon fill="#63b8ff" stroke="#63b8ff" points="1213.2078,-450.0001 1203.2078,-453.5 1213.2078,-457.0001 1213.2078,-450.0001"/>
</g>
<!-- Node30 -->
<g id="node30" class="node">
<title>Node30</title>
<g id="a_node30"><a xlink:href="../../de/d82/class_translator_polish.html" target="_top" xlink:title=" ">
<polygon fill="#ffffff" stroke="#666666" points="1345,-426 1258,-426 1258,-407 1345,-407 1345,-426"/>
<text text-anchor="middle" x="1301.5" y="-414" font-family="Helvetica,sans-Serif" font-size="10.00" fill="#000000">TranslatorPolish</text>
</a>
</g>
</g>
<!-- Node8&#45;&gt;Node30 -->
<g id="edge29" class="edge">
<title>Node8&#45;&gt;Node30</title>
<path fill="none" stroke="#63b8ff" d="M1191.7953,-441.7116C1213.7748,-436.6604 1239.1145,-430.837 1259.8995,-426.0604"/>
<polygon fill="#63b8ff" stroke="#63b8ff" points="1190.9235,-438.3207 1181.9615,-443.9716 1192.4914,-445.1428 1190.9235,-438.3207"/>
</g>
<!-- Node10 -->
<g id="node10" class="node">
<title>Node10</title>
<g id="a_node10"><a xlink:href="../../da/d24/class_translator_adapter__1__7__5.html" target="_top" xlink:title="Adapter class for languages that only contain translations up to version 1.7.5.">
<polygon fill="#ffffff" stroke="#666666" points="1525,-574 1400,-574 1400,-555 1525,-555 1525,-574"/>
<text text-anchor="middle" x="1462.5" y="-562" font-family="Helvetica,sans-Serif" font-size="10.00" fill="#000000">TranslatorAdapter_1_7_5</text>
</a>
</g>
</g>
<!-- Node9&#45;&gt;Node10 -->
<g id="edge9" class="edge">
<title>Node9&#45;&gt;Node10</title>
<path fill="none" stroke="#63b8ff" d="M1324.8673,-505.4312C1344.3839,-517.435 1373.2385,-534.1164 1400,-545.5 1408.3489,-549.0514 1417.5832,-552.2386 1426.3343,-554.9425"/>
<polygon fill="#63b8ff" stroke="#63b8ff" points="1326.681,-502.4375 1316.3428,-500.1196 1322.9791,-508.3786 1326.681,-502.4375"/>
</g>
<!-- Node25 -->
<g id="node25" class="node">
<title>Node25</title>
<g id="a_node25"><a xlink:href="../../da/db8/class_translator_armenian.html" target="_top" xlink:title=" ">
<polygon fill="#ffffff" stroke="#666666" points="1513,-537 1412,-537 1412,-518 1513,-518 1513,-537"/>
<text text-anchor="middle" x="1462.5" y="-525" font-family="Helvetica,sans-Serif" font-size="10.00" fill="#000000">TranslatorArmenian</text>
</a>
</g>
</g>
<!-- Node9&#45;&gt;Node25 -->
<g id="edge24" class="edge">
<title>Node9&#45;&gt;Node25</title>
<path fill="none" stroke="#63b8ff" d="M1352.7953,-502.2884C1374.7748,-507.3396 1400.1145,-513.163 1420.8995,-517.9396"/>
<polygon fill="#63b8ff" stroke="#63b8ff" points="1353.4914,-498.8572 1342.9615,-500.0284 1351.9235,-505.6793 1353.4914,-498.8572"/>
</g>
<!-- Node26 -->
<g id="node26" class="node">
<title>Node26</title>
<g id="a_node26"><a xlink:href="../../d9/dc1/class_translator_catalan.html" target="_top" xlink:title=" ">
<polygon fill="#ffffff" stroke="#666666" points="1509.5,-500 1415.5,-500 1415.5,-481 1509.5,-481 1509.5,-500"/>
<text text-anchor="middle" x="1462.5" y="-488" font-family="Helvetica,sans-Serif" font-size="10.00" fill="#000000">TranslatorCatalan</text>
</a>
</g>
</g>
<!-- Node9&#45;&gt;Node26 -->
<g id="edge25" class="edge">
<title>Node9&#45;&gt;Node26</title>
<path fill="none" stroke="#63b8ff" d="M1374.2437,-490.5C1388.1346,-490.5 1402.3364,-490.5 1415.174,-490.5"/>
<polygon fill="#63b8ff" stroke="#63b8ff" points="1374.2078,-487.0001 1364.2078,-490.5 1374.2078,-494.0001 1374.2078,-487.0001"/>
</g>
<!-- Node27 -->
<g id="node27" class="node">
<title>Node27</title>
<g id="a_node27"><a xlink:href="../../d7/d21/class_translator_danish.html" target="_top" xlink:title=" ">
<polygon fill="#ffffff" stroke="#666666" points="1508,-463 1417,-463 1417,-444 1508,-444 1508,-463"/>
<text text-anchor="middle" x="1462.5" y="-451" font-family="Helvetica,sans-Serif" font-size="10.00" fill="#000000">TranslatorDanish</text>
</a>
</g>
</g>
<!-- Node9&#45;&gt;Node27 -->
<g id="edge26" class="edge">
<title>Node9&#45;&gt;Node27</title>
<path fill="none" stroke="#63b8ff" d="M1352.7953,-478.7116C1374.7748,-473.6604 1400.1145,-467.837 1420.8995,-463.0604"/>
<polygon fill="#63b8ff" stroke="#63b8ff" points="1351.9235,-475.3207 1342.9615,-480.9716 1353.4914,-482.1428 1351.9235,-475.3207"/>
</g>
<!-- Node28 -->
<g id="node28" class="node">
<title>Node28</title>
<g id="a_node28"><a xlink:href="../../df/dc8/class_translator_indonesian.html" target="_top" xlink:title=" ">
<polygon fill="#ffffff" stroke="#666666" points="1516,-426 1409,-426 1409,-407 1516,-407 1516,-426"/>
<text text-anchor="middle" x="1462.5" y="-414" font-family="Helvetica,sans-Serif" font-size="10.00" fill="#000000">TranslatorIndonesian</text>
</a>
</g>
</g>
<!-- Node9&#45;&gt;Node28 -->
<g id="edge27" class="edge">
<title>Node9&#45;&gt;Node28</title>
<path fill="none" stroke="#63b8ff" d="M1353.06,-477.1629C1356.8652,-475.4783 1360.5571,-473.5972 1364,-471.5 1383.5948,-459.5641 1380.318,-446.2914 1400,-434.5 1405.6181,-431.1342 1411.8987,-428.3696 1418.2532,-426.1065"/>
<polygon fill="#63b8ff" stroke="#63b8ff" points="1351.4623,-474.0307 1343.4448,-480.9568 1354.0315,-480.5422 1351.4623,-474.0307"/>
</g>
<!-- Node11 -->
<g id="node11" class="node">
<title>Node11</title>
<g id="a_node11"><a xlink:href="../../d3/da1/class_translator_adapter__1__6__0.html" target="_top" xlink:title="Adapter class for languages that only contain translations up to version 1.6.0.">
<polygon fill="#ffffff" stroke="#666666" points="1686,-611 1561,-611 1561,-592 1686,-592 1686,-611"/>
<text text-anchor="middle" x="1623.5" y="-599" font-family="Helvetica,sans-Serif" font-size="10.00" fill="#000000">TranslatorAdapter_1_6_0</text>
</a>
</g>
</g>
<!-- Node10&#45;&gt;Node11 -->
<g id="edge10" class="edge">
<title>Node10&#45;&gt;Node11</title>
<path fill="none" stroke="#63b8ff" d="M1513.7953,-576.2884C1535.7748,-581.3396 1561.1145,-587.163 1581.8995,-591.9396"/>
<polygon fill="#63b8ff" stroke="#63b8ff" points="1514.4914,-572.8572 1503.9615,-574.0284 1512.9235,-579.6793 1514.4914,-572.8572"/>
</g>
<!-- Node23 -->
<g id="node23" class="node">
<title>Node23</title>
<g id="a_node23"><a xlink:href="../../d5/d43/class_translator_persian.html" target="_top" xlink:title=" ">
<polygon fill="#ffffff" stroke="#666666" points="1670,-574 1577,-574 1577,-555 1670,-555 1670,-574"/>
<text text-anchor="middle" x="1623.5" y="-562" font-family="Helvetica,sans-Serif" font-size="10.00" fill="#000000">TranslatorPersian</text>
</a>
</g>
</g>
<!-- Node10&#45;&gt;Node23 -->
<g id="edge22" class="edge">
<title>Node10&#45;&gt;Node23</title>
<path fill="none" stroke="#63b8ff" d="M1535.349,-564.5C1549.3862,-564.5 1563.7365,-564.5 1576.6719,-564.5"/>
<polygon fill="#63b8ff" stroke="#63b8ff" points="1535.2078,-561.0001 1525.2078,-564.5 1535.2078,-568.0001 1535.2078,-561.0001"/>
</g>
<!-- Node24 -->
<g id="node24" class="node">
<title>Node24</title>
<g id="a_node24"><a xlink:href="../../dd/d80/class_translator_turkish.html" target="_top" xlink:title=" ">
<polygon fill="#ffffff" stroke="#666666" points="1669.5,-537 1577.5,-537 1577.5,-518 1669.5,-518 1669.5,-537"/>
<text text-anchor="middle" x="1623.5" y="-525" font-family="Helvetica,sans-Serif" font-size="10.00" fill="#000000">TranslatorTurkish</text>
</a>
</g>
</g>
<!-- Node10&#45;&gt;Node24 -->
<g id="edge23" class="edge">
<title>Node10&#45;&gt;Node24</title>
<path fill="none" stroke="#63b8ff" d="M1513.7953,-552.7116C1535.7748,-547.6604 1561.1145,-541.837 1581.8995,-537.0604"/>
<polygon fill="#63b8ff" stroke="#63b8ff" points="1512.9235,-549.3207 1503.9615,-554.9716 1514.4914,-556.1428 1512.9235,-549.3207"/>
</g>
<!-- Node12 -->
<g id="node12" class="node">
<title>Node12</title>
<g id="a_node12"><a xlink:href="../../d4/d2b/class_translator_adapter__1__4__6.html" target="_top" xlink:title="Adapter class for languages that only contain translations up to version 1.4.6.">
<polygon fill="#ffffff" stroke="#666666" points="1847,-722 1722,-722 1722,-703 1847,-703 1847,-722"/>
<text text-anchor="middle" x="1784.5" y="-710" font-family="Helvetica,sans-Serif" font-size="10.00" fill="#000000">TranslatorAdapter_1_4_6</text>
</a>
</g>
</g>
<!-- Node11&#45;&gt;Node12 -->
<g id="edge11" class="edge">
<title>Node11&#45;&gt;Node12</title>
<path fill="none" stroke="#63b8ff" d="M1637.5554,-618.758C1655.2203,-639.3721 1687.4392,-673.5644 1722,-693.5 1728.582,-697.2967 1735.9997,-700.4074 1743.3649,-702.9313"/>
<polygon fill="#63b8ff" stroke="#63b8ff" points="1640.2242,-616.4935 1631.1147,-611.0836 1634.8623,-620.9936 1640.2242,-616.4935"/>
</g>
<!-- Node17 -->
<g id="node17" class="node">
<title>Node17</title>
<g id="a_node17"><a xlink:href="../../d3/d65/class_translator_afrikaans.html" target="_top" xlink:title=" ">
<polygon fill="#ffffff" stroke="#666666" points="1835,-685 1734,-685 1734,-666 1835,-666 1835,-685"/>
<text text-anchor="middle" x="1784.5" y="-673" font-family="Helvetica,sans-Serif" font-size="10.00" fill="#000000">TranslatorAfrikaans</text>
</a>
</g>
</g>
<!-- Node11&#45;&gt;Node17 -->
<g id="edge16" class="edge">
<title>Node11&#45;&gt;Node17</title>
<path fill="none" stroke="#63b8ff" d="M1646.8673,-616.4312C1666.3839,-628.435 1695.2385,-645.1164 1722,-656.5 1730.3489,-660.0514 1739.5832,-663.2386 1748.3343,-665.9425"/>
<polygon fill="#63b8ff" stroke="#63b8ff" points="1648.681,-613.4375 1638.3428,-611.1196 1644.9791,-619.3786 1648.681,-613.4375"/>
</g>
<!-- Node18 -->
<g id="node18" class="node">
<title>Node18</title>
<g id="a_node18"><a xlink:href="../../de/df7/class_translator_finnish.html" target="_top" xlink:title=" ">
<polygon fill="#ffffff" stroke="#666666" points="1830.5,-648 1738.5,-648 1738.5,-629 1830.5,-629 1830.5,-648"/>
<text text-anchor="middle" x="1784.5" y="-636" font-family="Helvetica,sans-Serif" font-size="10.00" fill="#000000">TranslatorFinnish</text>
</a>
</g>
</g>
<!-- Node11&#45;&gt;Node18 -->
<g id="edge17" class="edge">
<title>Node11&#45;&gt;Node18</title>
<path fill="none" stroke="#63b8ff" d="M1674.7953,-613.2884C1696.7748,-618.3396 1722.1145,-624.163 1742.8995,-628.9396"/>
<polygon fill="#63b8ff" stroke="#63b8ff" points="1675.4914,-609.8572 1664.9615,-611.0284 1673.9235,-616.6793 1675.4914,-609.8572"/>
</g>
<!-- Node19 -->
<g id="node19" class="node">
<title>Node19</title>
<g id="a_node19"><a xlink:href="../../d9/ddf/class_translator_macedonian.html" target="_top" xlink:title=" ">
<polygon fill="#ffffff" stroke="#666666" points="1841,-611 1728,-611 1728,-592 1841,-592 1841,-611"/>
<text text-anchor="middle" x="1784.5" y="-599" font-family="Helvetica,sans-Serif" font-size="10.00" fill="#000000">TranslatorMacedonian</text>
</a>
</g>
</g>
<!-- Node11&#45;&gt;Node19 -->
<g id="edge18" class="edge">
<title>Node11&#45;&gt;Node19</title>
<path fill="none" stroke="#63b8ff" d="M1696.3195,-601.5C1706.9493,-601.5 1717.7593,-601.5 1727.9992,-601.5"/>
<polygon fill="#63b8ff" stroke="#63b8ff" points="1696.2078,-598.0001 1686.2078,-601.5 1696.2078,-605.0001 1696.2078,-598.0001"/>
</g>
<!-- Node20 -->
<g id="node20" class="node">
<title>Node20</title>
<g id="a_node20"><a xlink:href="../../d5/d0a/class_translator_serbian.html" target="_top" xlink:title=" ">
<polygon fill="#ffffff" stroke="#666666" points="1831,-574 1738,-574 1738,-555 1831,-555 1831,-574"/>
<text text-anchor="middle" x="1784.5" y="-562" font-family="Helvetica,sans-Serif" font-size="10.00" fill="#000000">TranslatorSerbian</text>
</a>
</g>
</g>
<!-- Node11&#45;&gt;Node20 -->
<g id="edge19" class="edge">
<title>Node11&#45;&gt;Node20</title>
<path fill="none" stroke="#63b8ff" d="M1674.7953,-589.7116C1696.7748,-584.6604 1722.1145,-578.837 1742.8995,-574.0604"/>
<polygon fill="#63b8ff" stroke="#63b8ff" points="1673.9235,-586.3207 1664.9615,-591.9716 1675.4914,-593.1428 1673.9235,-586.3207"/>
</g>
<!-- Node21 -->
<g id="node21" class="node">
<title>Node21</title>
<g id="a_node21"><a xlink:href="../../dc/d03/class_translator_serbian_cyrillic.html" target="_top" xlink:title=" ">
<polygon fill="#ffffff" stroke="#666666" points="1846,-537 1723,-537 1723,-518 1846,-518 1846,-537"/>
<text text-anchor="middle" x="1784.5" y="-525" font-family="Helvetica,sans-Serif" font-size="10.00" fill="#000000">TranslatorSerbianCyrillic</text>
</a>
</g>
</g>
<!-- Node11&#45;&gt;Node21 -->
<g id="edge20" class="edge">
<title>Node11&#45;&gt;Node21</title>
<path fill="none" stroke="#63b8ff" d="M1675.06,-588.1629C1678.8652,-586.4783 1682.5571,-584.5972 1686,-582.5 1705.5948,-570.5641 1702.318,-557.2914 1722,-545.5 1727.6181,-542.1342 1733.8987,-539.3696 1740.2532,-537.1065"/>
<polygon fill="#63b8ff" stroke="#63b8ff" points="1673.4623,-585.0307 1665.4448,-591.9568 1676.0315,-591.5422 1673.4623,-585.0307"/>
</g>
<!-- Node22 -->
<g id="node22" class="node">
<title>Node22</title>
<g id="a_node22"><a xlink:href="../../df/d20/class_translator_vietnamese.html" target="_top" xlink:title=" ">
<polygon fill="#ffffff" stroke="#666666" points="1840.5,-500 1728.5,-500 1728.5,-481 1840.5,-481 1840.5,-500"/>
<text text-anchor="middle" x="1784.5" y="-488" font-family="Helvetica,sans-Serif" font-size="10.00" fill="#000000">TranslatorVietnamese</text>
</a>
</g>
</g>
<!-- Node11&#45;&gt;Node22 -->
<g id="edge21" class="edge">
<title>Node11&#45;&gt;Node22</title>
<path fill="none" stroke="#63b8ff" d="M1679.592,-587.1754C1681.8493,-585.7611 1683.9999,-584.2073 1686,-582.5 1713.8182,-558.7549 1694.0079,-532.0398 1722,-508.5 1726.0618,-505.0843 1730.7388,-502.316 1735.6682,-500.0726"/>
<polygon fill="#63b8ff" stroke="#63b8ff" points="1677.6812,-584.2252 1670.4485,-591.9673 1680.9306,-590.4254 1677.6812,-584.2252"/>
</g>
<!-- Node13 -->
<g id="node13" class="node">
<title>Node13</title>
<g id="a_node13"><a xlink:href="../../d3/de9/class_translator_arabic.html" target="_top" xlink:title=" ">
<polygon fill="#ffffff" stroke="#666666" points="1980.5,-777 1892.5,-777 1892.5,-758 1980.5,-758 1980.5,-777"/>
<text text-anchor="middle" x="1936.5" y="-765" font-family="Helvetica,sans-Serif" font-size="10.00" fill="#000000">TranslatorArabic</text>
</a>
</g>
</g>
<!-- Node12&#45;&gt;Node13 -->
<g id="edge12" class="edge">
<title>Node12&#45;&gt;Node13</title>
<path fill="none" stroke="#63b8ff" d="M1818.5002,-725.6044C1837.4304,-732.8165 1861.4568,-741.8323 1883,-749.5 1890.9399,-752.326 1899.5829,-755.2846 1907.5605,-757.9679"/>
<polygon fill="#63b8ff" stroke="#63b8ff" points="1819.6963,-722.3146 1809.1057,-722.014 1817.1973,-728.8534 1819.6963,-722.3146"/>
</g>
<!-- Node14 -->
<g id="node14" class="node">
<title>Node14</title>
<g id="a_node14"><a xlink:href="../../dc/d53/class_translator_lithuanian.html" target="_top" xlink:title=" ">
<polygon fill="#ffffff" stroke="#666666" points="1988.5,-740 1884.5,-740 1884.5,-721 1988.5,-721 1988.5,-740"/>
<text text-anchor="middle" x="1936.5" y="-728" font-family="Helvetica,sans-Serif" font-size="10.00" fill="#000000">TranslatorLithuanian</text>
</a>
</g>
</g>
<!-- Node12&#45;&gt;Node14 -->
<g id="edge13" class="edge">
<title>Node12&#45;&gt;Node14</title>
<path fill="none" stroke="#63b8ff" d="M1857.344,-721.1263C1866.3737,-722.1956 1875.4628,-723.2719 1884.1005,-724.2948"/>
<polygon fill="#63b8ff" stroke="#63b8ff" points="1857.544,-717.6256 1847.2018,-719.9252 1856.7208,-724.577 1857.544,-717.6256"/>
</g>
<!-- Node15 -->
<g id="node15" class="node">
<title>Node15</title>
<g id="a_node15"><a xlink:href="../../dd/d38/class_translator_norwegian.html" target="_top" xlink:title=" ">
<polygon fill="#ffffff" stroke="#666666" points="1990,-703 1883,-703 1883,-684 1990,-684 1990,-703"/>
<text text-anchor="middle" x="1936.5" y="-691" font-family="Helvetica,sans-Serif" font-size="10.00" fill="#000000">TranslatorNorwegian</text>
</a>
</g>
</g>
<!-- Node12&#45;&gt;Node15 -->
<g id="edge14" class="edge">
<title>Node12&#45;&gt;Node15</title>
<path fill="none" stroke="#63b8ff" d="M1857.2159,-703.4105C1865.7906,-702.3387 1874.4211,-701.2599 1882.6698,-700.2288"/>
<polygon fill="#63b8ff" stroke="#63b8ff" points="1856.6904,-699.9489 1847.2018,-704.6623 1857.5587,-706.8948 1856.6904,-699.9489"/>
</g>
<!-- Node16 -->
<g id="node16" class="node">
<title>Node16</title>
<g id="a_node16"><a xlink:href="../../dd/d0b/class_translator_slovene.html" target="_top" xlink:title=" ">
<polygon fill="#ffffff" stroke="#666666" points="1984,-666 1889,-666 1889,-647 1984,-647 1984,-666"/>
<text text-anchor="middle" x="1936.5" y="-654" font-family="Helvetica,sans-Serif" font-size="10.00" fill="#000000">TranslatorSlovene</text>
</a>
</g>
</g>
<!-- Node12&#45;&gt;Node16 -->
<g id="edge15" class="edge">
<title>Node12&#45;&gt;Node16</title>
<path fill="none" stroke="#63b8ff" d="M1829.9587,-699.7962C1835.754,-697.8516 1841.5578,-695.7394 1847,-693.5 1863.7306,-686.6155 1866.3725,-681.6299 1883,-674.5 1890.1153,-671.4489 1897.9339,-668.5668 1905.3442,-666.0399"/>
<polygon fill="#63b8ff" stroke="#63b8ff" points="1828.7308,-696.5143 1820.2791,-702.9033 1830.8703,-703.1794 1828.7308,-696.5143"/>
</g>
</g>
</svg>
